<svg xmlns="http://www.w3.org/2000/svg" viewBox="0 0 64 64" role="img" aria-label="System Design Mastery">
  <defs>
    <linearGradient id="g" x1="0" y1="0" x2="1" y2="1">
      <stop offset="0%" stop-color="#2563eb"/>
      <stop offset="100%" stop-color="#0f766e"/>
    </linearGradient>
  </defs>
  <rect width="64" height="64" rx="18" fill="#f5f2eb"/>
  <rect x="6" y="6" width="52" height="52" rx="16" fill="url(#g)"/>
  <path d="M20 22h17c5.2 0 8 2.7 8 7 0 3.5-2 5.8-5.4 6.6L46 44h-7.7l-5.6-7.4H27V44h-7V22zm7 5.7v4h9.2c1.9 0 2.9-.8 2.9-2.2 0-1.4-1-2.2-2.9-2.2H27z" fill="#fffdf9"/>
  <circle cx="17" cy="49" r="3" fill="#fffdf9" opacity="0.9"/>
  <circle cx="28" cy="49" r="3" fill="#fffdf9" opacity="0.7"/>
  <circle cx="39" cy="49" r="3" fill="#fffdf9" opacity="0.5"/>
</svg>
