<svg id="my-svg" width="100%" xmlns="http://www.w3.org/2000/svg" xmlns:xlink="http://www.w3.org/1999/xlink" viewBox="0 0 666.171875 450" style="max-width: 666.172px; background-color: transparent;" role="graphics-document document" aria-roledescription="pie"><style>#my-svg{font-family:"trebuchet ms",verdana,arial,sans-serif;font-size:16px;fill:#000000;}@keyframes edge-animation-frame{from{stroke-dashoffset:0;}}@keyframes dash{to{stroke-dashoffset:0;}}#my-svg .edge-animation-slow{stroke-dasharray:9,5!important;stroke-dashoffset:900;animation:dash 50s linear infinite;stroke-linecap:round;}#my-svg .edge-animation-fast{stroke-dasharray:9,5!important;stroke-dashoffset:900;animation:dash 20s linear infinite;stroke-linecap:round;}#my-svg .error-icon{fill:#552222;}#my-svg .error-text{fill:#552222;stroke:#552222;}#my-svg .edge-thickness-normal{stroke-width:1px;}#my-svg .edge-thickness-thick{stroke-width:3.5px;}#my-svg .edge-pattern-solid{stroke-dasharray:0;}#my-svg .edge-thickness-invisible{stroke-width:0;fill:none;}#my-svg .edge-pattern-dashed{stroke-dasharray:3;}#my-svg .edge-pattern-dotted{stroke-dasharray:2;}#my-svg .marker{fill:#666;stroke:#666;}#my-svg .marker.cross{stroke:#666;}#my-svg svg{font-family:"trebuchet ms",verdana,arial,sans-serif;font-size:16px;}#my-svg p{margin:0;}#my-svg .pieCircle{stroke:black;stroke-width:2px;opacity:0.7;}#my-svg .pieOuterCircle{stroke:black;stroke-width:2px;fill:none;}#my-svg .pieTitleText{text-anchor:middle;font-size:25px;fill:#333;font-family:"trebuchet ms",verdana,arial,sans-serif;}#my-svg .slice{font-family:"trebuchet ms",verdana,arial,sans-serif;fill:#000000;font-size:17px;}#my-svg .legend text{fill:#333;font-family:"trebuchet ms",verdana,arial,sans-serif;font-size:17px;}#my-svg :root{--mermaid-font-family:"trebuchet ms",verdana,arial,sans-serif;}</style><g/><g transform="translate(225,225)"><circle cx="0" cy="0" r="186" class="pieOuterCircle"/><path d="M0,-185A185,185,0,0,1,185,0L0,0Z" fill="#F4F4F4" class="pieCircle"/><path d="M185,0A185,185,0,0,1,0,185L0,0Z" fill="#555" class="pieCircle"/><path d="M0,185A185,185,0,0,1,-175.945,57.168L0,0Z" fill="#BBB" class="pieCircle"/><path d="M-175.945,57.168A185,185,0,0,1,-149.668,-108.74L0,0Z" fill="#777" class="pieCircle"/><path d="M-149.668,-108.74A185,185,0,0,1,0,-185L0,0Z" fill="#999" class="pieCircle"/><text transform="translate(98.11106588963348,-98.11106588963347)" class="slice" style="text-anchor: middle;">25%</text><text transform="translate(98.11106588963342,98.11106588963351)" class="slice" style="text-anchor: middle;">25%</text><text transform="translate(-81.55520375558064,112.25110796952396)" class="slice" style="text-anchor: middle;">20%</text><text transform="translate(-137.04175725757537,-21.705282024332014)" class="slice" style="text-anchor: middle;">15%</text><text transform="translate(-62.99118183886213,-123.62715523113603)" class="slice" style="text-anchor: middle;">15%</text><text x="0" y="-200" class="pieTitleText">Interview Scoring Weight Distribution</text><g class="legend" transform="translate(216,-55)"><rect width="18" height="18" style="fill: rgb(119, 119, 119); stroke: rgb(119, 119, 119);"/><text x="22" y="14">Problem Exploration</text></g><g class="legend" transform="translate(216,-33)"><rect width="18" height="18" style="fill: rgb(244, 244, 244); stroke: rgb(244, 244, 244);"/><text x="22" y="14">High-Level Design</text></g><g class="legend" transform="translate(216,-11)"><rect width="18" height="18" style="fill: rgb(85, 85, 85); stroke: rgb(85, 85, 85);"/><text x="22" y="14">Technical Depth</text></g><g class="legend" transform="translate(216,11)"><rect width="18" height="18" style="fill: rgb(187, 187, 187); stroke: rgb(187, 187, 187);"/><text x="22" y="14">Trade-off Analysis</text></g><g class="legend" transform="translate(216,33)"><rect width="18" height="18" style="fill: rgb(153, 153, 153); stroke: rgb(153, 153, 153);"/><text x="22" y="14">Communication</text></g></g></svg>