<svg id="my-svg" width="100%" xmlns="http://www.w3.org/2000/svg" xmlns:xlink="http://www.w3.org/1999/xlink" class="statediagram" style="max-width: 2353.43px; background-color: transparent;" viewBox="0 0 2353.43359375 758" role="graphics-document document" aria-roledescription="stateDiagram"><style>#my-svg{font-family:"trebuchet ms",verdana,arial,sans-serif;font-size:16px;fill:#000000;}@keyframes edge-animation-frame{from{stroke-dashoffset:0;}}@keyframes dash{to{stroke-dashoffset:0;}}#my-svg .edge-animation-slow{stroke-dasharray:9,5!important;stroke-dashoffset:900;animation:dash 50s linear infinite;stroke-linecap:round;}#my-svg .edge-animation-fast{stroke-dasharray:9,5!important;stroke-dashoffset:900;animation:dash 20s linear infinite;stroke-linecap:round;}#my-svg .error-icon{fill:#552222;}#my-svg .error-text{fill:#552222;stroke:#552222;}#my-svg .edge-thickness-normal{stroke-width:1px;}#my-svg .edge-thickness-thick{stroke-width:3.5px;}#my-svg .edge-pattern-solid{stroke-dasharray:0;}#my-svg .edge-thickness-invisible{stroke-width:0;fill:none;}#my-svg .edge-pattern-dashed{stroke-dasharray:3;}#my-svg .edge-pattern-dotted{stroke-dasharray:2;}#my-svg .marker{fill:#666;stroke:#666;}#my-svg .marker.cross{stroke:#666;}#my-svg svg{font-family:"trebuchet ms",verdana,arial,sans-serif;font-size:16px;}#my-svg p{margin:0;}#my-svg defs #statediagram-barbEnd{fill:#000;stroke:#000;}#my-svg g.stateGroup text{fill:#999;stroke:none;font-size:10px;}#my-svg g.stateGroup text{fill:#000000;stroke:none;font-size:10px;}#my-svg g.stateGroup .state-title{font-weight:bolder;fill:#111111;}#my-svg g.stateGroup rect{fill:#eee;stroke:#999;}#my-svg g.stateGroup line{stroke:#666;stroke-width:1;}#my-svg .transition{stroke:#000;stroke-width:1;fill:none;}#my-svg .stateGroup .composit{fill:#ffffff;border-bottom:1px;}#my-svg .stateGroup .alt-composit{fill:#e0e0e0;border-bottom:1px;}#my-svg .state-note{stroke:#999;fill:#666;}#my-svg .state-note text{fill:#fff;stroke:none;font-size:10px;}#my-svg .stateLabel .box{stroke:none;stroke-width:0;fill:#eee;opacity:0.5;}#my-svg .edgeLabel .label rect{fill:#eee;opacity:0.5;}#my-svg .edgeLabel{background-color:white;text-align:center;}#my-svg .edgeLabel p{background-color:white;}#my-svg .edgeLabel rect{opacity:0.5;background-color:white;fill:white;}#my-svg .edgeLabel .label text{fill:#000000;}#my-svg .label div .edgeLabel{color:#000000;}#my-svg .stateLabel text{fill:#111111;font-size:10px;font-weight:bold;}#my-svg .node circle.state-start{fill:#222;stroke:#222;}#my-svg .node .fork-join{fill:#222;stroke:#222;}#my-svg .node circle.state-end{fill:hsl(0, 0%, 83.3333333333%);stroke:#ffffff;stroke-width:1.5;}#my-svg .end-state-inner{fill:#ffffff;stroke-width:1.5;}#my-svg .node rect{fill:#eee;stroke:#000;stroke-width:1px;}#my-svg .node polygon{fill:#eee;stroke:#000;stroke-width:1px;}#my-svg #statediagram-barbEnd{fill:#666;}#my-svg .statediagram-cluster rect{fill:#eee;stroke:#000;stroke-width:1px;}#my-svg .cluster-label,#my-svg .nodeLabel{color:#111111;}#my-svg .statediagram-cluster rect.outer{rx:5px;ry:5px;}#my-svg .statediagram-state .divider{stroke:#000;}#my-svg .statediagram-state .title-state{rx:5px;ry:5px;}#my-svg .statediagram-cluster.statediagram-cluster .inner{fill:#ffffff;}#my-svg .statediagram-cluster.statediagram-cluster-alt .inner{fill:#f4f4f4;}#my-svg .statediagram-cluster .inner{rx:0;ry:0;}#my-svg .statediagram-state rect.basic{rx:5px;ry:5px;}#my-svg .statediagram-state rect.divider{stroke-dasharray:10,10;fill:#f4f4f4;}#my-svg .note-edge{stroke-dasharray:5;}#my-svg .statediagram-note rect{fill:#666;stroke:#999;stroke-width:1px;rx:0;ry:0;}#my-svg .statediagram-note rect{fill:#666;stroke:#999;stroke-width:1px;rx:0;ry:0;}#my-svg .statediagram-note text{fill:#fff;}#my-svg .statediagram-note .nodeLabel{color:#fff;}#my-svg .statediagram .edgeLabel{color:red;}#my-svg #dependencyStart,#my-svg #dependencyEnd{fill:#666;stroke:#666;stroke-width:1;}#my-svg .statediagramTitleText{text-anchor:middle;font-size:18px;fill:#000000;}#my-svg :root{--mermaid-font-family:"trebuchet ms",verdana,arial,sans-serif;}</style><g><defs><marker id="my-svg_stateDiagram-barbEnd" refX="19" refY="7" markerWidth="20" markerHeight="14" markerUnits="userSpaceOnUse" orient="auto"><path d="M 19,7 L9,13 L14,7 L9,1 Z"/></marker></defs><g class="root"><g class="clusters"><g class="note-cluster" id="Open----parent"><rect x="8" y="210" width="296.265625" height="128" fill="none"/></g><g class="note-cluster" id="Closed----parent"><rect x="2000.43359375" y="550" width="300" height="200" fill="none"/></g></g><g class="edgePaths"><path d="M1048.027,22L1048.027,26.167C1048.027,30.333,1048.027,38.667,1048.027,47C1048.027,55.333,1048.027,63.667,1048.027,67.833L1048.027,72" id="edge0" class="edge-thickness-normal edge-pattern-solid transition" style="fill:none;;;fill:none" data-edge="true" data-et="edge" data-id="edge0" data-points="W3sieCI6MTA0OC4wMjczNDM3NSwieSI6MjJ9LHsieCI6MTA0OC4wMjczNDM3NSwieSI6NDd9LHsieCI6MTA0OC4wMjczNDM3NSwieSI6NzJ9XQ==" marker-end="url(#my-svg_stateDiagram-barbEnd)"/><path d="M1074.613,99.783L1109.466,109.986C1144.319,120.189,1214.025,140.594,1248.878,158.964C1283.73,177.333,1283.73,193.667,1283.73,209.167C1283.73,224.667,1283.73,239.333,1283.73,246.667L1283.73,254" id="edge1" class="edge-thickness-normal edge-pattern-solid transition" style="fill:none;;;fill:none" data-edge="true" data-et="edge" data-id="edge1" data-points="W3sieCI6MTA3NC42MTMyODEyNSwieSI6OTkuNzgyNzk3NDgwOTQxMzN9LHsieCI6MTI4My43MzA0Njg3NSwieSI6MTYxfSx7IngiOjEyODMuNzMwNDY4NzUsInkiOjIxMH0seyJ4IjoxMjgzLjczMDQ2ODc1LCJ5IjoyNTR9XQ==" marker-end="url(#my-svg_stateDiagram-barbEnd)"/><path d="M1241.152,277.242L1108.168,287.368C975.184,297.495,709.215,317.747,576.23,336.04C443.246,354.333,443.246,370.667,443.246,387C443.246,403.333,443.246,419.667,443.246,427.833L443.246,436" id="edge2" class="edge-thickness-normal edge-pattern-solid transition" style="fill:none;;;fill:none" data-edge="true" data-et="edge" data-id="edge2" data-points="W3sieCI6MTI0MS4xNTIzNDM3NSwieSI6Mjc3LjI0MjE3ODA1OTUyNjd9LHsieCI6NDQzLjI0NjA5Mzc1LCJ5IjozMzh9LHsieCI6NDQzLjI0NjA5Mzc1LCJ5IjozODd9LHsieCI6NDQzLjI0NjA5Mzc1LCJ5Ijo0MzZ9XQ==" marker-end="url(#my-svg_stateDiagram-barbEnd)"/><path d="M1074.613,93.532L1269.75,104.777C1464.887,116.021,1855.16,138.511,2050.297,157.922C2245.434,177.333,2245.434,193.667,2245.434,212.5C2245.434,231.333,2245.434,252.667,2245.434,274C2245.434,295.333,2245.434,316.667,2245.434,335.5C2245.434,354.333,2245.434,370.667,2225.852,387.902C2206.271,405.137,2167.108,423.274,2147.527,432.343L2127.945,441.412" id="edge3" class="edge-thickness-normal edge-pattern-solid transition" style="fill:none;;;fill:none" data-edge="true" data-et="edge" data-id="edge3" data-points="W3sieCI6MTA3NC42MTMyODEyNSwieSI6OTMuNTMyMDAyNzY2Mzk2MTJ9LHsieCI6MjI0NS40MzM1OTM3NSwieSI6MTYxfSx7IngiOjIyNDUuNDMzNTkzNzUsInkiOjIxMH0seyJ4IjoyMjQ1LjQzMzU5Mzc1LCJ5IjoyNzR9LHsieCI6MjI0NS40MzM1OTM3NSwieSI6MzM4fSx7IngiOjIyNDUuNDMzNTkzNzUsInkiOjM4N30seyJ4IjoyMTI3Ljk0NTMxMjUsInkiOjQ0MS40MTE2MDQzMTAzMjIyfV0=" marker-end="url(#my-svg_stateDiagram-barbEnd)"/><path d="M1326.309,277.237L1459.496,287.365C1592.684,297.492,1859.059,317.746,1992.246,336.04C2125.434,354.333,2125.434,370.667,2122.003,387C2118.572,403.333,2111.71,419.667,2108.279,427.833L2104.848,436" id="edge4" class="edge-thickness-normal edge-pattern-solid transition" style="fill:none;;;fill:none" data-edge="true" data-et="edge" data-id="edge4" data-points="W3sieCI6MTMyNi4zMDg1OTM3NSwieSI6Mjc3LjIzNzQ4MzUyNDg0NzMzfSx7IngiOjIxMjUuNDMzNTkzNzUsInkiOjMzOH0seyJ4IjoyMTI1LjQzMzU5Mzc1LCJ5IjozODd9LHsieCI6MjEwNC44NDc3MTI4NjIzMTksInkiOjQzNn1d" marker-end="url(#my-svg_stateDiagram-barbEnd)"/><path d="M2070.065,436L2059.293,427.833C2048.521,419.667,2026.977,403.333,2016.206,387C2005.434,370.667,2005.434,354.333,2005.434,335.5C2005.434,316.667,2005.434,295.333,2005.434,274C2005.434,252.667,2005.434,231.333,2005.434,212.5C2005.434,193.667,2005.434,177.333,1850.297,157.986C1695.16,138.639,1384.887,116.277,1229.75,105.097L1074.613,93.916" id="edge5" class="edge-thickness-normal edge-pattern-solid transition" style="fill:none;;;fill:none" data-edge="true" data-et="edge" data-id="edge5" data-points="W3sieCI6MjA3MC4wNjUxMDQxNjY2NjY1LCJ5Ijo0MzZ9LHsieCI6MjAwNS40MzM1OTM3NSwieSI6Mzg3fSx7IngiOjIwMDUuNDMzNTkzNzUsInkiOjMzOH0seyJ4IjoyMDA1LjQzMzU5Mzc1LCJ5IjoyNzR9LHsieCI6MjAwNS40MzM1OTM3NSwieSI6MjEwfSx7IngiOjIwMDUuNDMzNTkzNzUsInkiOjE2MX0seyJ4IjoxMDc0LjYxMzI4MTI1LCJ5Ijo5My45MTYwNDEwNjE0NjE2M31d" marker-end="url(#my-svg_stateDiagram-barbEnd)"/><path d="M2064.945,458.556L1953.127,467.63C1841.309,476.704,1617.672,494.852,1505.854,510.093C1394.035,525.333,1394.035,537.667,1289.083,559.456C1184.13,581.245,974.225,612.491,869.273,628.114L764.32,643.736" id="edge6" class="edge-thickness-normal edge-pattern-solid transition" style="fill:none;;;fill:none" data-edge="true" data-et="edge" data-id="edge6" data-points="W3sieCI6MjA2NC45NDUzMTI1LCJ5Ijo0NTguNTU2MTk4ODAyMTE1NX0seyJ4IjoxMzk0LjAzNTE1NjI1LCJ5Ijo1MTN9LHsieCI6MTM5NC4wMzUxNTYyNSwieSI6NTUwfSx7IngiOjc2NC4zMjAzMTI1LCJ5Ijo2NDMuNzM2NDQ0NTY1OTA2M31d" marker-end="url(#my-svg_stateDiagram-barbEnd)"/><path d="M716.445,630L712.579,616.667C708.714,603.333,700.984,576.667,697.119,557.167C693.254,537.667,693.254,525.333,693.254,509.667C693.254,494,693.254,475,693.254,454C693.254,433,693.254,410,693.254,390.333C693.254,370.667,693.254,354.333,693.254,335.5C693.254,316.667,693.254,295.333,693.254,274C693.254,252.667,693.254,231.333,693.254,212.5C693.254,193.667,693.254,177.333,747.952,158.528C802.65,139.724,912.046,118.447,966.743,107.809L1021.441,97.171" id="edge7" class="edge-thickness-normal edge-pattern-solid transition" style="fill:none;;;fill:none" data-edge="true" data-et="edge" data-id="edge7" data-points="W3sieCI6NzE2LjQ0NDUzMTI1LCJ5Ijo2MzB9LHsieCI6NjkzLjI1MzkwNjI1LCJ5Ijo1NTB9LHsieCI6NjkzLjI1MzkwNjI1LCJ5Ijo1MTN9LHsieCI6NjkzLjI1MzkwNjI1LCJ5Ijo0NTZ9LHsieCI6NjkzLjI1MzkwNjI1LCJ5IjozODd9LHsieCI6NjkzLjI1MzkwNjI1LCJ5IjozMzh9LHsieCI6NjkzLjI1MzkwNjI1LCJ5IjoyNzR9LHsieCI6NjkzLjI1MzkwNjI1LCJ5IjoyMTB9LHsieCI6NjkzLjI1MzkwNjI1LCJ5IjoxNjF9LHsieCI6MTAyMS40NDE0MDYyNSwieSI6OTcuMTcwNzA3NTM3ODIxMjN9XQ==" marker-end="url(#my-svg_stateDiagram-barbEnd)"/><path d="M1021.441,107.937L1006.689,116.781C991.936,125.625,962.431,143.312,947.678,160.323C932.926,177.333,932.926,193.667,932.926,212.5C932.926,231.333,932.926,252.667,932.926,274C932.926,295.333,932.926,316.667,932.926,335.5C932.926,354.333,932.926,370.667,919.209,387.03C905.492,403.394,878.059,419.788,864.342,427.985L850.625,436.182" id="edge8" class="edge-thickness-normal edge-pattern-solid transition" style="fill:none;;;fill:none" data-edge="true" data-et="edge" data-id="edge8" data-points="W3sieCI6MTAyMS40NDE0MDYyNSwieSI6MTA3LjkzNzQ4NzI3MzQ2NzcyfSx7IngiOjkzMi45MjU3ODEyNSwieSI6MTYxfSx7IngiOjkzMi45MjU3ODEyNSwieSI6MjEwfSx7IngiOjkzMi45MjU3ODEyNSwieSI6Mjc0fSx7IngiOjkzMi45MjU3ODEyNSwieSI6MzM4fSx7IngiOjkzMi45MjU3ODEyNSwieSI6Mzg3fSx7IngiOjg1MC42MjUsInkiOjQzNi4xODE2NzA1NTcxOTA3fV0=" marker-end="url(#my-svg_stateDiagram-barbEnd)"/><path d="M1241.152,280.37L1176.952,289.975C1112.751,299.58,984.35,318.79,920.15,336.562C855.949,354.333,855.949,370.667,851.394,387C846.838,403.333,837.728,419.667,833.172,427.833L828.617,436" id="edge9" class="edge-thickness-normal edge-pattern-solid transition" style="fill:none;;;fill:none" data-edge="true" data-et="edge" data-id="edge9" data-points="W3sieCI6MTI0MS4xNTIzNDM3NSwieSI6MjgwLjM3MDA3ODE2NDk1fSx7IngiOjg1NS45NDkyMTg3NSwieSI6MzM4fSx7IngiOjg1NS45NDkyMTg3NSwieSI6Mzg3fSx7IngiOjgyOC42MTY5NjEwNTA3MjQ2LCJ5Ijo0MzZ9XQ==" marker-end="url(#my-svg_stateDiagram-barbEnd)"/><path d="M806.305,436L801.75,427.833C797.194,419.667,788.083,403.333,783.528,387C778.973,370.667,778.973,354.333,778.973,335.5C778.973,316.667,778.973,295.333,778.973,274C778.973,252.667,778.973,231.333,778.973,212.5C778.973,193.667,778.973,177.333,819.384,158.803C859.796,140.273,940.618,119.545,981.03,109.182L1021.441,98.818" id="edge10" class="edge-thickness-normal edge-pattern-solid transition" style="fill:none;;;fill:none" data-edge="true" data-et="edge" data-id="edge10" data-points="W3sieCI6ODA2LjMwNDkxMzk0OTI3NTQsInkiOjQzNn0seyJ4Ijo3NzguOTcyNjU2MjUsInkiOjM4N30seyJ4Ijo3NzguOTcyNjU2MjUsInkiOjMzOH0seyJ4Ijo3NzguOTcyNjU2MjUsInkiOjI3NH0seyJ4Ijo3NzguOTcyNjU2MjUsInkiOjIxMH0seyJ4Ijo3NzguOTcyNjU2MjUsInkiOjE2MX0seyJ4IjoxMDIxLjQ0MTQwNjI1LCJ5Ijo5OC44MTgwNTUxMTE5MzcwNH1d" marker-end="url(#my-svg_stateDiagram-barbEnd)"/><path d="M1021.441,95.864L946.743,106.72C872.046,117.576,722.65,139.288,647.952,158.311C573.254,177.333,573.254,193.667,552.083,209.803C530.913,225.94,488.572,241.88,467.401,249.85L446.23,257.821" id="edge11" class="edge-thickness-normal edge-pattern-solid transition" style="fill:none;;;fill:none" data-edge="true" data-et="edge" data-id="edge11" data-points="W3sieCI6MTAyMS40NDE0MDYyNSwieSI6OTUuODYzODAwMTY3ODQzMjF9LHsieCI6NTczLjI1MzkwNjI1LCJ5IjoxNjF9LHsieCI6NTczLjI1MzkwNjI1LCJ5IjoyMTB9LHsieCI6NDQ2LjIzMDQ2ODc1LCJ5IjoyNTcuODIwNTg4MjM1Mjk0MX1d" marker-end="url(#my-svg_stateDiagram-barbEnd)"/><path d="M387.629,254L381.9,246.667C376.171,239.333,364.712,224.667,358.983,209.167C353.254,193.667,353.254,177.333,464.618,158.107C575.983,138.88,798.712,116.76,910.077,105.7L1021.441,94.64" id="edge12" class="edge-thickness-normal edge-pattern-solid transition" style="fill:none;;;fill:none" data-edge="true" data-et="edge" data-id="edge12" data-points="W3sieCI6Mzg3LjYyODkwNjI1LCJ5IjoyNTR9LHsieCI6MzUzLjI1MzkwNjI1LCJ5IjoyMTB9LHsieCI6MzUzLjI1MzkwNjI1LCJ5IjoxNjF9LHsieCI6MTAyMS40NDE0MDYyNSwieSI6OTQuNjQwMzI3ODk0NjU5OX1d" marker-end="url(#my-svg_stateDiagram-barbEnd)"/><path d="M1074.613,96.812L1133.715,107.51C1192.816,118.208,1311.02,139.604,1370.121,158.469C1429.223,177.333,1429.223,193.667,1429.223,212.5C1429.223,231.333,1429.223,252.667,1429.223,274C1429.223,295.333,1429.223,316.667,1429.223,335.5C1429.223,354.333,1429.223,370.667,1399.514,387.618C1369.806,404.57,1310.389,422.139,1280.681,430.924L1250.973,439.709" id="edge13" class="edge-thickness-normal edge-pattern-solid transition" style="fill:none;;;fill:none" data-edge="true" data-et="edge" data-id="edge13" data-points="W3sieCI6MTA3NC42MTMyODEyNSwieSI6OTYuODEyMzA5MTQyNzA0ODl9LHsieCI6MTQyOS4yMjI2NTYyNSwieSI6MTYxfSx7IngiOjE0MjkuMjIyNjU2MjUsInkiOjIxMH0seyJ4IjoxNDI5LjIyMjY1NjI1LCJ5IjoyNzR9LHsieCI6MTQyOS4yMjI2NTYyNSwieSI6MzM4fSx7IngiOjE0MjkuMjIyNjU2MjUsInkiOjM4N30seyJ4IjoxMjUwLjk3MjY1NjI1LCJ5Ijo0MzkuNzA4NzE4MzYwNzg3NX1d" marker-end="url(#my-svg_stateDiagram-barbEnd)"/><path d="M1283.73,294L1283.73,301.333C1283.73,308.667,1283.73,323.333,1283.73,338.833C1283.73,354.333,1283.73,370.667,1273.333,387C1262.935,403.333,1242.139,419.667,1231.741,427.833L1221.343,436" id="edge14" class="edge-thickness-normal edge-pattern-solid transition" style="fill:none;;;fill:none" data-edge="true" data-et="edge" data-id="edge14" data-points="W3sieCI6MTI4My43MzA0Njg3NSwieSI6Mjk0fSx7IngiOjEyODMuNzMwNDY4NzUsInkiOjMzOH0seyJ4IjoxMjgzLjczMDQ2ODc1LCJ5IjozODd9LHsieCI6MTIyMS4zNDMxMjcyNjQ0OTI4LCJ5Ijo0MzZ9XQ==" marker-end="url(#my-svg_stateDiagram-barbEnd)"/><path d="M1170.415,436L1160.017,427.833C1149.619,419.667,1128.823,403.333,1118.425,387C1108.027,370.667,1108.027,354.333,1108.027,335.5C1108.027,316.667,1108.027,295.333,1108.027,274C1108.027,252.667,1108.027,231.333,1108.027,212.5C1108.027,193.667,1108.027,177.333,1100.926,161C1093.824,144.667,1079.622,128.333,1072.52,120.167L1065.419,112" id="edge15" class="edge-thickness-normal edge-pattern-solid transition" style="fill:none;;;fill:none" data-edge="true" data-et="edge" data-id="edge15" data-points="W3sieCI6MTE3MC40MTQ2ODUyMzU1MDcyLCJ5Ijo0MzZ9LHsieCI6MTEwOC4wMjczNDM3NSwieSI6Mzg3fSx7IngiOjExMDguMDI3MzQzNzUsInkiOjMzOH0seyJ4IjoxMTA4LjAyNzM0Mzc1LCJ5IjoyNzR9LHsieCI6MTEwOC4wMjczNDM3NSwieSI6MjEwfSx7IngiOjExMDguMDI3MzQzNzUsInkiOjE2MX0seyJ4IjoxMDY1LjQxODY0ODA5NzgyNiwieSI6MTEyfV0=" marker-end="url(#my-svg_stateDiagram-barbEnd)"/><path d="M1145.038,436L1124.277,427.833C1103.517,419.667,1061.997,403.333,1041.237,387C1020.477,370.667,1020.477,354.333,1057.256,337.225C1094.035,320.117,1167.594,302.234,1204.373,293.293L1241.152,284.351" id="edge16" class="edge-thickness-normal edge-pattern-solid transition" style="fill:none;;;fill:none" data-edge="true" data-et="edge" data-id="edge16" data-points="W3sieCI6MTE0NS4wMzc2NDcxOTIwMjksInkiOjQzNn0seyJ4IjoxMDIwLjQ3NjU2MjUsInkiOjM4N30seyJ4IjoxMDIwLjQ3NjU2MjUsInkiOjMzOH0seyJ4IjoxMjQxLjE1MjM0Mzc1LCJ5IjoyODQuMzUxMjIzNDIwODMwMX1d" marker-end="url(#my-svg_stateDiagram-barbEnd)"/><path d="M1074.613,94.488L1193.083,105.573C1311.553,116.658,1548.493,138.829,1666.964,158.081C1785.434,177.333,1785.434,193.667,1785.434,212.5C1785.434,231.333,1785.434,252.667,1785.434,274C1785.434,295.333,1785.434,316.667,1785.434,335.5C1785.434,354.333,1785.434,370.667,1767.538,387.447C1749.642,404.227,1713.85,421.454,1695.954,430.067L1678.059,438.68" id="edge17" class="edge-thickness-normal edge-pattern-solid transition" style="fill:none;;;fill:none" data-edge="true" data-et="edge" data-id="edge17" data-points="W3sieCI6MTA3NC42MTMyODEyNSwieSI6OTQuNDg3Njc4NTE4NDU1NzR9LHsieCI6MTc4NS40MzM1OTM3NSwieSI6MTYxfSx7IngiOjE3ODUuNDMzNTkzNzUsInkiOjIxMH0seyJ4IjoxNzg1LjQzMzU5Mzc1LCJ5IjoyNzR9LHsieCI6MTc4NS40MzM1OTM3NSwieSI6MzM4fSx7IngiOjE3ODUuNDMzNTkzNzUsInkiOjM4N30seyJ4IjoxNjc4LjA1ODU5Mzc1LCJ5Ijo0MzguNjgwNDM1OTY3MzAyNDZ9XQ==" marker-end="url(#my-svg_stateDiagram-barbEnd)"/><path d="M1326.309,280.735L1386.65,290.279C1446.992,299.823,1567.676,318.912,1628.018,336.622C1688.359,354.333,1688.359,370.667,1682.881,387C1677.403,403.333,1666.447,419.667,1660.968,427.833L1655.49,436" id="edge18" class="edge-thickness-normal edge-pattern-solid transition" style="fill:none;;;fill:none" data-edge="true" data-et="edge" data-id="edge18" data-points="W3sieCI6MTMyNi4zMDg1OTM3NSwieSI6MjgwLjczNDU2NTgxNTUxMzh9LHsieCI6MTY4OC4zNTkzNzUsInkiOjMzOH0seyJ4IjoxNjg4LjM1OTM3NSwieSI6Mzg3fSx7IngiOjE2NTUuNDkwMjA2MDY4ODQwNSwieSI6NDM2fV0=" marker-end="url(#my-svg_stateDiagram-barbEnd)"/><path d="M1627.353,436L1621.341,427.833C1615.33,419.667,1603.308,403.333,1597.296,387C1591.285,370.667,1591.285,354.333,1591.285,335.5C1591.285,316.667,1591.285,295.333,1591.285,274C1591.285,252.667,1591.285,231.333,1591.285,212.5C1591.285,193.667,1591.285,177.333,1505.173,158.229C1419.061,139.126,1246.837,117.251,1160.725,106.314L1074.613,95.377" id="edge19" class="edge-thickness-normal edge-pattern-solid transition" style="fill:none;;;fill:none" data-edge="true" data-et="edge" data-id="edge19" data-points="W3sieCI6MTYyNy4zNTI3NTEzNTg2OTU3LCJ5Ijo0MzZ9LHsieCI6MTU5MS4yODUxNTYyNSwieSI6Mzg3fSx7IngiOjE1OTEuMjg1MTU2MjUsInkiOjMzOH0seyJ4IjoxNTkxLjI4NTE1NjI1LCJ5IjoyNzR9LHsieCI6MTU5MS4yODUxNTYyNSwieSI6MjEwfSx7IngiOjE1OTEuMjg1MTU2MjUsInkiOjE2MX0seyJ4IjoxMDc0LjYxMzI4MTI1LCJ5Ijo5NS4zNzY3MjAzMDcxNzQ2fV0=" marker-end="url(#my-svg_stateDiagram-barbEnd)"/><path d="M1021.441,94.057L877.223,105.214C733.005,116.371,444.569,138.686,300.351,158.009C156.133,177.333,156.133,193.667,156.133,206C156.133,218.333,156.133,226.667,156.133,230.833L156.133,235" id="Open-Open----note-20" class="edge-thickness-normal edge-pattern-solid transition note-edge" style="fill:none;;;fill:none" data-edge="true" data-et="edge" data-id="Open-Open----note-20" data-points="W3sieCI6MTAyMS40NDE0MDYyNSwieSI6OTQuMDU2Nzc4NzE0NTUxNjN9LHsieCI6MTU2LjEzMjgxMjUsInkiOjE2MX0seyJ4IjoxNTYuMTMyODEyNSwieSI6MjEwfSx7IngiOjE1Ni4xMzI4MTI1LCJ5IjoyMzV9XQ=="/><path d="M2115.389,476L2121.229,482.167C2127.07,488.333,2138.752,500.667,2144.593,513C2150.434,525.333,2150.434,537.667,2150.434,548C2150.434,558.333,2150.434,566.667,2150.434,570.833L2150.434,575" id="Closed-Closed----note-21" class="edge-thickness-normal edge-pattern-solid transition note-edge" style="fill:none;;;fill:none" data-edge="true" data-et="edge" data-id="Closed-Closed----note-21" data-points="W3sieCI6MjExNS4zODg1NjkwNzg5NDc1LCJ5Ijo0NzZ9LHsieCI6MjE1MC40MzM1OTM3NSwieSI6NTEzfSx7IngiOjIxNTAuNDMzNTkzNzUsInkiOjU1MH0seyJ4IjoyMTUwLjQzMzU5Mzc1LCJ5Ijo1NzV9XQ=="/></g><g class="edgeLabels"><g class="edgeLabel"><g class="label" data-id="edge0" transform="translate(0, 0)"><foreignObject width="0" height="0"><div xmlns="http://www.w3.org/1999/xhtml" class="labelBkg" style="display: table-cell; white-space: nowrap; line-height: 1.5; max-width: 200px; text-align: center;"><span class="edgeLabel"></span></div></foreignObject></g></g><g class="edgeLabel" transform="translate(1283.73046875, 161)"><g class="label" data-id="edge1" transform="translate(-70.0390625, -12)"><foreignObject width="140.078125" height="24"><div xmlns="http://www.w3.org/1999/xhtml" class="labelBkg" style="display: table-cell; white-space: nowrap; line-height: 1.5; max-width: 200px; text-align: center;"><span class="edgeLabel"><p>First answer posted</p></span></div></foreignObject></g></g><g class="edgeLabel" transform="translate(443.24609375, 387)"><g class="label" data-id="edge2" transform="translate(-92.4375, -12)"><foreignObject width="184.875" height="24"><div xmlns="http://www.w3.org/1999/xhtml" class="labelBkg" style="display: table-cell; white-space: nowrap; line-height: 1.5; max-width: 200px; text-align: center;"><span class="edgeLabel"><p>Author accepts an answer</p></span></div></foreignObject></g></g><g class="edgeLabel" transform="translate(2245.43359375, 274)"><g class="label" data-id="edge3" transform="translate(-100, -24)"><foreignObject width="200" height="48"><div xmlns="http://www.w3.org/1999/xhtml" class="labelBkg" style="display: table; white-space: break-spaces; line-height: 1.5; max-width: 200px; text-align: center; width: 200px;"><span class="edgeLabel"><p>5 close votes or moderator close</p></span></div></foreignObject></g></g><g class="edgeLabel" transform="translate(2125.43359375, 387)"><g class="label" data-id="edge4" transform="translate(-100, -24)"><foreignObject width="200" height="48"><div xmlns="http://www.w3.org/1999/xhtml" class="labelBkg" style="display: table; white-space: break-spaces; line-height: 1.5; max-width: 200px; text-align: center; width: 200px;"><span class="edgeLabel"><p>5 close votes or moderator close</p></span></div></foreignObject></g></g><g class="edgeLabel" transform="translate(2005.43359375, 274)"><g class="label" data-id="edge5" transform="translate(-100, -24)"><foreignObject width="200" height="48"><div xmlns="http://www.w3.org/1999/xhtml" class="labelBkg" style="display: table; white-space: break-spaces; line-height: 1.5; max-width: 200px; text-align: center; width: 200px;"><span class="edgeLabel"><p>5 reopen votes or moderator reopen</p></span></div></foreignObject></g></g><g class="edgeLabel" transform="translate(1394.03515625, 513)"><g class="label" data-id="edge6" transform="translate(-69.3828125, -12)"><foreignObject width="138.765625" height="24"><div xmlns="http://www.w3.org/1999/xhtml" class="labelBkg" style="display: table-cell; white-space: nowrap; line-height: 1.5; max-width: 200px; text-align: center;"><span class="edgeLabel"><p>Closed as duplicate</p></span></div></foreignObject></g></g><g class="edgeLabel" transform="translate(693.25390625, 387)"><g class="label" data-id="edge7" transform="translate(-47.578125, -12)"><foreignObject width="95.15625" height="24"><div xmlns="http://www.w3.org/1999/xhtml" class="labelBkg" style="display: table-cell; white-space: nowrap; line-height: 1.5; max-width: 200px; text-align: center;"><span class="edgeLabel"><p>Reopen votes</p></span></div></foreignObject></g></g><g class="edgeLabel" transform="translate(932.92578125, 274)"><g class="label" data-id="edge8" transform="translate(-56.9765625, -12)"><foreignObject width="113.953125" height="24"><div xmlns="http://www.w3.org/1999/xhtml" class="labelBkg" style="display: table-cell; white-space: nowrap; line-height: 1.5; max-width: 200px; text-align: center;"><span class="edgeLabel"><p>Moderator locks</p></span></div></foreignObject></g></g><g class="edgeLabel" transform="translate(855.94921875, 387)"><g class="label" data-id="edge9" transform="translate(-56.9765625, -12)"><foreignObject width="113.953125" height="24"><div xmlns="http://www.w3.org/1999/xhtml" class="labelBkg" style="display: table-cell; white-space: nowrap; line-height: 1.5; max-width: 200px; text-align: center;"><span class="edgeLabel"><p>Moderator locks</p></span></div></foreignObject></g></g><g class="edgeLabel" transform="translate(778.97265625, 274)"><g class="label" data-id="edge10" transform="translate(-65.71875, -12)"><foreignObject width="131.4375" height="24"><div xmlns="http://www.w3.org/1999/xhtml" class="labelBkg" style="display: table-cell; white-space: nowrap; line-height: 1.5; max-width: 200px; text-align: center;"><span class="edgeLabel"><p>Moderator unlocks</p></span></div></foreignObject></g></g><g class="edgeLabel" transform="translate(573.25390625, 161)"><g class="label" data-id="edge11" transform="translate(-100, -24)"><foreignObject width="200" height="48"><div xmlns="http://www.w3.org/1999/xhtml" class="labelBkg" style="display: table; white-space: break-spaces; line-height: 1.5; max-width: 200px; text-align: center; width: 200px;"><span class="edgeLabel"><p>High activity triggers protection</p></span></div></foreignObject></g></g><g class="edgeLabel" transform="translate(353.25390625, 161)"><g class="label" data-id="edge12" transform="translate(-100, -24)"><foreignObject width="200" height="48"><div xmlns="http://www.w3.org/1999/xhtml" class="labelBkg" style="display: table; white-space: break-spaces; line-height: 1.5; max-width: 200px; text-align: center; width: 200px;"><span class="edgeLabel"><p>Protection expires or removed</p></span></div></foreignObject></g></g><g class="edgeLabel" transform="translate(1429.22265625, 274)"><g class="label" data-id="edge13" transform="translate(-67.9140625, -12)"><foreignObject width="135.828125" height="24"><div xmlns="http://www.w3.org/1999/xhtml" class="labelBkg" style="display: table-cell; white-space: nowrap; line-height: 1.5; max-width: 200px; text-align: center;"><span class="edgeLabel"><p>User places bounty</p></span></div></foreignObject></g></g><g class="edgeLabel" transform="translate(1283.73046875, 387)"><g class="label" data-id="edge14" transform="translate(-67.9140625, -12)"><foreignObject width="135.828125" height="24"><div xmlns="http://www.w3.org/1999/xhtml" class="labelBkg" style="display: table-cell; white-space: nowrap; line-height: 1.5; max-width: 200px; text-align: center;"><span class="edgeLabel"><p>User places bounty</p></span></div></foreignObject></g></g><g class="edgeLabel" transform="translate(1108.02734375, 274)"><g class="label" data-id="edge15" transform="translate(-98.125, -12)"><foreignObject width="196.25" height="24"><div xmlns="http://www.w3.org/1999/xhtml" class="labelBkg" style="display: table-cell; white-space: nowrap; line-height: 1.5; max-width: 200px; text-align: center;"><span class="edgeLabel"><p>Bounty expires unanswered</p></span></div></foreignObject></g></g><g class="edgeLabel" transform="translate(1020.4765625, 387)"><g class="label" data-id="edge16" transform="translate(-57.8359375, -12)"><foreignObject width="115.671875" height="24"><div xmlns="http://www.w3.org/1999/xhtml" class="labelBkg" style="display: table-cell; white-space: nowrap; line-height: 1.5; max-width: 200px; text-align: center;"><span class="edgeLabel"><p>Bounty awarded</p></span></div></foreignObject></g></g><g class="edgeLabel" transform="translate(1785.43359375, 274)"><g class="label" data-id="edge17" transform="translate(-100, -24)"><foreignObject width="200" height="48"><div xmlns="http://www.w3.org/1999/xhtml" class="labelBkg" style="display: table; white-space: break-spaces; line-height: 1.5; max-width: 200px; text-align: center; width: 200px;"><span class="edgeLabel"><p>Author or moderator deletes</p></span></div></foreignObject></g></g><g class="edgeLabel" transform="translate(1688.359375, 387)"><g class="label" data-id="edge18" transform="translate(-65.40625, -12)"><foreignObject width="130.8125" height="24"><div xmlns="http://www.w3.org/1999/xhtml" class="labelBkg" style="display: table-cell; white-space: nowrap; line-height: 1.5; max-width: 200px; text-align: center;"><span class="edgeLabel"><p>Moderator deletes</p></span></div></foreignObject></g></g><g class="edgeLabel" transform="translate(1591.28515625, 274)"><g class="label" data-id="edge19" transform="translate(-74.1484375, -12)"><foreignObject width="148.296875" height="24"><div xmlns="http://www.w3.org/1999/xhtml" class="labelBkg" style="display: table-cell; white-space: nowrap; line-height: 1.5; max-width: 200px; text-align: center;"><span class="edgeLabel"><p>Moderator undeletes</p></span></div></foreignObject></g></g><g class="edgeLabel"><g class="label" data-id="Open-Open----note-20" transform="translate(0, 0)"><foreignObject width="0" height="0"><div xmlns="http://www.w3.org/1999/xhtml" class="labelBkg" style="display: table-cell; white-space: nowrap; line-height: 1.5; max-width: 200px; text-align: center;"><span class="edgeLabel"></span></div></foreignObject></g></g><g class="edgeLabel"><g class="label" data-id="Closed-Closed----note-21" transform="translate(0, 0)"><foreignObject width="0" height="0"><div xmlns="http://www.w3.org/1999/xhtml" class="labelBkg" style="display: table-cell; white-space: nowrap; line-height: 1.5; max-width: 200px; text-align: center;"><span class="edgeLabel"></span></div></foreignObject></g></g></g><g class="nodes"><g class="node default" id="state-root_start-0" transform="translate(1048.02734375, 15)"><circle class="state-start" r="7" width="14" height="14"/></g><g class="node  statediagram-state" id="state-Open-20" transform="translate(1048.02734375, 92)"><rect class="basic label-container" style="" rx="5" ry="5" x="-26.5859375" y="-20" width="53.171875" height="40"/><g class="label" style="" transform="translate(-18.5859375, -12)"><rect/><foreignObject width="37.171875" height="24"><div xmlns="http://www.w3.org/1999/xhtml" style="display: table-cell; white-space: nowrap; line-height: 1.5; max-width: 200px; text-align: center;"><span class="nodeLabel"><p>Open</p></span></div></foreignObject></g></g><g class="node  statediagram-state" id="state-Answered-18" transform="translate(1283.73046875, 274)"><rect class="basic label-container" style="" rx="5" ry="5" x="-42.578125" y="-20" width="85.15625" height="40"/><g class="label" style="" transform="translate(-34.578125, -12)"><rect/><foreignObject width="69.15625" height="24"><div xmlns="http://www.w3.org/1999/xhtml" style="display: table-cell; white-space: nowrap; line-height: 1.5; max-width: 200px; text-align: center;"><span class="nodeLabel"><p>Answered</p></span></div></foreignObject></g></g><g class="node  statediagram-state" id="state-Accepted-2" transform="translate(443.24609375, 456)"><rect class="basic label-container" style="" rx="5" ry="5" x="-41.453125" y="-20" width="82.90625" height="40"/><g class="label" style="" transform="translate(-33.453125, -12)"><rect/><foreignObject width="66.90625" height="24"><div xmlns="http://www.w3.org/1999/xhtml" style="display: table-cell; white-space: nowrap; line-height: 1.5; max-width: 200px; text-align: center;"><span class="nodeLabel"><p>Accepted</p></span></div></foreignObject></g></g><g class="node  statediagram-state" id="state-Closed-21" transform="translate(2096.4453125, 456)"><rect class="basic label-container" style="" rx="5" ry="5" x="-31.5" y="-20" width="63" height="40"/><g class="label" style="" transform="translate(-23.5, -12)"><rect/><foreignObject width="47" height="24"><div xmlns="http://www.w3.org/1999/xhtml" style="display: table-cell; white-space: nowrap; line-height: 1.5; max-width: 200px; text-align: center;"><span class="nodeLabel"><p>Closed</p></span></div></foreignObject></g></g><g class="node  statediagram-state" id="state-Duplicate-7" transform="translate(722.2421875, 650)"><rect class="basic label-container" style="" rx="5" ry="5" x="-42.078125" y="-20" width="84.15625" height="40"/><g class="label" style="" transform="translate(-34.078125, -12)"><rect/><foreignObject width="68.15625" height="24"><div xmlns="http://www.w3.org/1999/xhtml" style="display: table-cell; white-space: nowrap; line-height: 1.5; max-width: 200px; text-align: center;"><span class="nodeLabel"><p>Duplicate</p></span></div></foreignObject></g></g><g class="node  statediagram-state" id="state-Locked-10" transform="translate(817.4609375, 456)"><rect class="basic label-container" style="" rx="5" ry="5" x="-33.1640625" y="-20" width="66.328125" height="40"/><g class="label" style="" transform="translate(-25.1640625, -12)"><rect/><foreignObject width="50.328125" height="24"><div xmlns="http://www.w3.org/1999/xhtml" style="display: table-cell; white-space: nowrap; line-height: 1.5; max-width: 200px; text-align: center;"><span class="nodeLabel"><p>Locked</p></span></div></foreignObject></g></g><g class="node  statediagram-state" id="state-Protected-12" transform="translate(403.25390625, 274)"><rect class="basic label-container" style="" rx="5" ry="5" x="-42.9765625" y="-20" width="85.953125" height="40"/><g class="label" style="" transform="translate(-34.9765625, -12)"><rect/><foreignObject width="69.953125" height="24"><div xmlns="http://www.w3.org/1999/xhtml" style="display: table-cell; white-space: nowrap; line-height: 1.5; max-width: 200px; text-align: center;"><span class="nodeLabel"><p>Protected</p></span></div></foreignObject></g></g><g class="node  statediagram-state" id="state-BountyActive-16" transform="translate(1195.87890625, 456)"><rect class="basic label-container" style="" rx="5" ry="5" x="-55.09375" y="-20" width="110.1875" height="40"/><g class="label" style="" transform="translate(-47.09375, -12)"><rect/><foreignObject width="94.1875" height="24"><div xmlns="http://www.w3.org/1999/xhtml" style="display: table-cell; white-space: nowrap; line-height: 1.5; max-width: 200px; text-align: center;"><span class="nodeLabel"><p>BountyActive</p></span></div></foreignObject></g></g><g class="node  statediagram-state" id="state-Deleted-19" transform="translate(1642.07421875, 456)"><rect class="basic label-container" style="" rx="5" ry="5" x="-35.984375" y="-20" width="71.96875" height="40"/><g class="label" style="" transform="translate(-27.984375, -12)"><rect/><foreignObject width="55.96875" height="24"><div xmlns="http://www.w3.org/1999/xhtml" style="display: table-cell; white-space: nowrap; line-height: 1.5; max-width: 200px; text-align: center;"><span class="nodeLabel"><p>Deleted</p></span></div></foreignObject></g></g><g class="node statediagram-note" id="state-Open----note-20" transform="translate(156.1328125, 274)"><g class="basic label-container"><path d="M-113.1328125 -39 L113.1328125 -39 L113.1328125 39 L-113.1328125 39" stroke="none" stroke-width="0" fill="#666" style=""/><path d="M-113.1328125 -39 C-34.930314172561964 -39, 43.27218415487607 -39, 113.1328125 -39 M-113.1328125 -39 C-53.16847759071785 -39, 6.795857318564302 -39, 113.1328125 -39 M113.1328125 -39 C113.1328125 -15.762316085817353, 113.1328125 7.475367828365293, 113.1328125 39 M113.1328125 -39 C113.1328125 -22.371653859163658, 113.1328125 -5.743307718327316, 113.1328125 39 M113.1328125 39 C60.0349365340416 39, 6.937060568083197 39, -113.1328125 39 M113.1328125 39 C63.396258283517405 39, 13.65970406703481 39, -113.1328125 39 M-113.1328125 39 C-113.1328125 17.074390594295398, -113.1328125 -4.851218811409204, -113.1328125 -39 M-113.1328125 39 C-113.1328125 13.689062005503473, -113.1328125 -11.621875988993054, -113.1328125 -39" stroke="#999" stroke-width="1.3" fill="none" stroke-dasharray="0 0" style=""/></g><g class="label" style="" transform="translate(-98.1328125, -24)"><rect/><foreignObject width="196.265625" height="48"><div xmlns="http://www.w3.org/1999/xhtml" style="display: table-cell; white-space: nowrap; line-height: 1.5; max-width: 200px; text-align: center;"><span class="nodeLabel"><p>Accepting answers, voting,<br />and commenting all active.</p></span></div></foreignObject></g></g><g class="node statediagram-note" id="state-Closed----note-21" transform="translate(2150.43359375, 650)"><g class="basic label-container"><path d="M-115 -75 L115 -75 L115 75 L-115 75" stroke="none" stroke-width="0" fill="#666" style=""/><path d="M-115 -75 C-54.00533352504168 -75, 6.989332949916644 -75, 115 -75 M-115 -75 C-53.39409236366024 -75, 8.211815272679516 -75, 115 -75 M115 -75 C115 -22.2127396863621, 115 30.574520627275803, 115 75 M115 -75 C115 -16.53913205828303, 115 41.92173588343394, 115 75 M115 75 C49.6310324852886 75, -15.7379350294228 75, -115 75 M115 75 C35.83009486338237 75, -43.33981027323526 75, -115 75 M-115 75 C-115 23.28533801906714, -115 -28.42932396186572, -115 -75 M-115 75 C-115 38.6449759224898, -115 2.2899518449795977, -115 -75" stroke="#999" stroke-width="1.3" fill="none" stroke-dasharray="0 0" style=""/></g><g class="label" style="" transform="translate(-100, -60)"><rect/><foreignObject width="200" height="120"><div xmlns="http://www.w3.org/1999/xhtml" style="display: table; white-space: break-spaces; line-height: 1.5; max-width: 200px; text-align: center; width: 200px;"><span class="nodeLabel"><p>No new answers allowed.<br />Existing answers remain visible.<br />Voting and commenting still active.</p></span></div></foreignObject></g></g></g></g></g></svg>