<svg id="my-svg" width="100%" xmlns="http://www.w3.org/2000/svg" xmlns:xlink="http://www.w3.org/1999/xlink" class="statediagram" style="max-width: 1096.05px; background-color: transparent;" viewBox="0 0 1096.0546875 1592" role="graphics-document document" aria-roledescription="stateDiagram"><style>#my-svg{font-family:"trebuchet ms",verdana,arial,sans-serif;font-size:16px;fill:#000000;}@keyframes edge-animation-frame{from{stroke-dashoffset:0;}}@keyframes dash{to{stroke-dashoffset:0;}}#my-svg .edge-animation-slow{stroke-dasharray:9,5!important;stroke-dashoffset:900;animation:dash 50s linear infinite;stroke-linecap:round;}#my-svg .edge-animation-fast{stroke-dasharray:9,5!important;stroke-dashoffset:900;animation:dash 20s linear infinite;stroke-linecap:round;}#my-svg .error-icon{fill:#552222;}#my-svg .error-text{fill:#552222;stroke:#552222;}#my-svg .edge-thickness-normal{stroke-width:1px;}#my-svg .edge-thickness-thick{stroke-width:3.5px;}#my-svg .edge-pattern-solid{stroke-dasharray:0;}#my-svg .edge-thickness-invisible{stroke-width:0;fill:none;}#my-svg .edge-pattern-dashed{stroke-dasharray:3;}#my-svg .edge-pattern-dotted{stroke-dasharray:2;}#my-svg .marker{fill:#666;stroke:#666;}#my-svg .marker.cross{stroke:#666;}#my-svg svg{font-family:"trebuchet ms",verdana,arial,sans-serif;font-size:16px;}#my-svg p{margin:0;}#my-svg defs #statediagram-barbEnd{fill:#000;stroke:#000;}#my-svg g.stateGroup text{fill:#999;stroke:none;font-size:10px;}#my-svg g.stateGroup text{fill:#000000;stroke:none;font-size:10px;}#my-svg g.stateGroup .state-title{font-weight:bolder;fill:#111111;}#my-svg g.stateGroup rect{fill:#eee;stroke:#999;}#my-svg g.stateGroup line{stroke:#666;stroke-width:1;}#my-svg .transition{stroke:#000;stroke-width:1;fill:none;}#my-svg .stateGroup .composit{fill:#ffffff;border-bottom:1px;}#my-svg .stateGroup .alt-composit{fill:#e0e0e0;border-bottom:1px;}#my-svg .state-note{stroke:#999;fill:#666;}#my-svg .state-note text{fill:#fff;stroke:none;font-size:10px;}#my-svg .stateLabel .box{stroke:none;stroke-width:0;fill:#eee;opacity:0.5;}#my-svg .edgeLabel .label rect{fill:#eee;opacity:0.5;}#my-svg .edgeLabel{background-color:white;text-align:center;}#my-svg .edgeLabel p{background-color:white;}#my-svg .edgeLabel rect{opacity:0.5;background-color:white;fill:white;}#my-svg .edgeLabel .label text{fill:#000000;}#my-svg .label div .edgeLabel{color:#000000;}#my-svg .stateLabel text{fill:#111111;font-size:10px;font-weight:bold;}#my-svg .node circle.state-start{fill:#222;stroke:#222;}#my-svg .node .fork-join{fill:#222;stroke:#222;}#my-svg .node circle.state-end{fill:hsl(0, 0%, 83.3333333333%);stroke:#ffffff;stroke-width:1.5;}#my-svg .end-state-inner{fill:#ffffff;stroke-width:1.5;}#my-svg .node rect{fill:#eee;stroke:#000;stroke-width:1px;}#my-svg .node polygon{fill:#eee;stroke:#000;stroke-width:1px;}#my-svg #statediagram-barbEnd{fill:#666;}#my-svg .statediagram-cluster rect{fill:#eee;stroke:#000;stroke-width:1px;}#my-svg .cluster-label,#my-svg .nodeLabel{color:#111111;}#my-svg .statediagram-cluster rect.outer{rx:5px;ry:5px;}#my-svg .statediagram-state .divider{stroke:#000;}#my-svg .statediagram-state .title-state{rx:5px;ry:5px;}#my-svg .statediagram-cluster.statediagram-cluster .inner{fill:#ffffff;}#my-svg .statediagram-cluster.statediagram-cluster-alt .inner{fill:#f4f4f4;}#my-svg .statediagram-cluster .inner{rx:0;ry:0;}#my-svg .statediagram-state rect.basic{rx:5px;ry:5px;}#my-svg .statediagram-state rect.divider{stroke-dasharray:10,10;fill:#f4f4f4;}#my-svg .note-edge{stroke-dasharray:5;}#my-svg .statediagram-note rect{fill:#666;stroke:#999;stroke-width:1px;rx:0;ry:0;}#my-svg .statediagram-note rect{fill:#666;stroke:#999;stroke-width:1px;rx:0;ry:0;}#my-svg .statediagram-note text{fill:#fff;}#my-svg .statediagram-note .nodeLabel{color:#fff;}#my-svg .statediagram .edgeLabel{color:red;}#my-svg #dependencyStart,#my-svg #dependencyEnd{fill:#666;stroke:#666;stroke-width:1;}#my-svg .statediagramTitleText{text-anchor:middle;font-size:18px;fill:#000000;}#my-svg :root{--mermaid-font-family:"trebuchet ms",verdana,arial,sans-serif;}</style><g><defs><marker id="my-svg_stateDiagram-barbEnd" refX="19" refY="7" markerWidth="20" markerHeight="14" markerUnits="userSpaceOnUse" orient="auto"><path d="M 19,7 L9,13 L14,7 L9,1 Z"/></marker></defs><g class="root"><g class="clusters"><g class="note-cluster" id="Processing----parent"><rect x="8" y="356" width="300" height="200" fill="none"/></g><g class="note-cluster" id="Approved----parent"><rect x="537.609375" y="906" width="300" height="176" fill="none"/></g><g class="note-cluster" id="Disbursed----parent"><rect x="658.578125" y="1270" width="300" height="200" fill="none"/></g></g><g class="edgePaths"><path d="M677.902,22L677.902,28.167C677.902,34.333,677.902,46.667,677.902,59C677.902,71.333,677.902,83.667,677.902,89.833L677.902,96" id="edge0" class="edge-thickness-normal edge-pattern-solid transition" style="fill:none;;;fill:none" data-edge="true" data-et="edge" data-id="edge0" data-points="W3sieCI6Njc3LjkwMjM0Mzc1LCJ5IjoyMn0seyJ4Ijo2NzcuOTAyMzQzNzUsInkiOjU5fSx7IngiOjY3Ny45MDIzNDM3NSwieSI6OTZ9XQ==" marker-end="url(#my-svg_stateDiagram-barbEnd)"/><path d="M651.551,124.004L618.081,134.17C584.611,144.336,517.671,164.668,484.201,183.667C450.73,202.667,450.73,220.333,450.73,229.167L450.73,238" id="edge1" class="edge-thickness-normal edge-pattern-solid transition" style="fill:none;;;fill:none" data-edge="true" data-et="edge" data-id="edge1" data-points="W3sieCI6NjUxLjU1MDc4MTI1LCJ5IjoxMjQuMDAzODg2MDk5NDU2NjR9LHsieCI6NDUwLjczMDQ2ODc1LCJ5IjoxODV9LHsieCI6NDUwLjczMDQ2ODc1LCJ5IjoyMzh9XQ==" marker-end="url(#my-svg_stateDiagram-barbEnd)"/><path d="M495.691,268.295L532.596,276.746C569.501,285.197,643.311,302.098,680.216,316.716C717.121,331.333,717.121,343.667,728.471,363.167C739.821,382.667,762.521,409.333,773.871,422.667L785.221,436" id="edge2" class="edge-thickness-normal edge-pattern-solid transition" style="fill:none;;;fill:none" data-edge="true" data-et="edge" data-id="edge2" data-points="W3sieCI6NDk1LjY5MTQwNjI1LCJ5IjoyNjguMjk1NDcxODc1MTgzM30seyJ4Ijo3MTcuMTIxMDkzNzUsInkiOjMxOX0seyJ4Ijo3MTcuMTIxMDkzNzUsInkiOjM1Nn0seyJ4Ijo3ODUuMjIxMDkzNzUsInkiOjQzNn1d" marker-end="url(#my-svg_stateDiagram-barbEnd)"/><path d="M422.18,278L412.426,284.833C402.671,291.667,383.162,305.333,373.407,318.333C363.652,331.333,363.652,343.667,368.406,363.167C373.16,382.667,382.667,409.333,387.421,422.667L392.174,436" id="edge3" class="edge-thickness-normal edge-pattern-solid transition" style="fill:none;;;fill:none" data-edge="true" data-et="edge" data-id="edge3" data-points="W3sieCI6NDIyLjE4MDI2MzgzMTk2NzI0LCJ5IjoyNzh9LHsieCI6MzYzLjY1MjM0Mzc1LCJ5IjozMTl9LHsieCI6MzYzLjY1MjM0Mzc1LCJ5IjozNTZ9LHsieCI6MzkyLjE3NDIxODc1LCJ5Ijo0MzZ9XQ==" marker-end="url(#my-svg_stateDiagram-barbEnd)"/><path d="M427.005,436L445.473,422.667C463.94,409.333,500.874,382.667,519.341,363.167C537.809,343.667,537.809,331.333,528.054,318.333C518.299,305.333,498.79,291.667,489.035,284.833L479.281,278" id="edge4" class="edge-thickness-normal edge-pattern-solid transition" style="fill:none;;;fill:none" data-edge="true" data-et="edge" data-id="edge4" data-points="W3sieCI6NDI3LjAwNTQ2ODc1LCJ5Ijo0MzZ9LHsieCI6NTM3LjgwODU5Mzc1LCJ5IjozNTZ9LHsieCI6NTM3LjgwODU5Mzc1LCJ5IjozMTl9LHsieCI6NDc5LjI4MDY3MzY2ODAzMjc2LCJ5IjoyNzh9XQ==" marker-end="url(#my-svg_stateDiagram-barbEnd)"/><path d="M802.246,476L802.246,489.333C802.246,502.667,802.246,529.333,802.246,550.833C802.246,572.333,802.246,588.667,802.246,605C802.246,621.333,802.246,637.667,802.246,645.833L802.246,654" id="edge5" class="edge-thickness-normal edge-pattern-solid transition" style="fill:none;;;fill:none" data-edge="true" data-et="edge" data-id="edge5" data-points="W3sieCI6ODAyLjI0NjA5Mzc1LCJ5Ijo0NzZ9LHsieCI6ODAyLjI0NjA5Mzc1LCJ5Ijo1NTZ9LHsieCI6ODAyLjI0NjA5Mzc1LCJ5Ijo2MDV9LHsieCI6ODAyLjI0NjA5Mzc1LCJ5Ijo2NTR9XQ==" marker-end="url(#my-svg_stateDiagram-barbEnd)"/><path d="M802.246,694L802.246,700.167C802.246,706.333,802.246,718.667,802.246,731C802.246,743.333,802.246,755.667,802.246,761.833L802.246,768" id="edge6" class="edge-thickness-normal edge-pattern-solid transition" style="fill:none;;;fill:none" data-edge="true" data-et="edge" data-id="edge6" data-points="W3sieCI6ODAyLjI0NjA5Mzc1LCJ5Ijo2OTR9LHsieCI6ODAyLjI0NjA5Mzc1LCJ5Ijo3MzF9LHsieCI6ODAyLjI0NjA5Mzc1LCJ5Ijo3Njh9XQ==" marker-end="url(#my-svg_stateDiagram-barbEnd)"/><path d="M835.474,808L849.042,816.167C862.61,824.333,889.747,840.667,903.315,857C916.883,873.333,916.883,889.667,916.883,909.167C916.883,928.667,916.883,951.333,916.883,962.667L916.883,974" id="edge7" class="edge-thickness-normal edge-pattern-solid transition" style="fill:none;;;fill:none" data-edge="true" data-et="edge" data-id="edge7" data-points="W3sieCI6ODM1LjQ3NDEyODE3MDI4OTksInkiOjgwOH0seyJ4Ijo5MTYuODgyODEyNSwieSI6ODU3fSx7IngiOjkxNi44ODI4MTI1LCJ5Ijo5MDZ9LHsieCI6OTE2Ljg4MjgxMjUsInkiOjk3NH1d" marker-end="url(#my-svg_stateDiagram-barbEnd)"/><path d="M916.883,1014L916.883,1025.333C916.883,1036.667,916.883,1059.333,916.883,1076.833C916.883,1094.333,916.883,1106.667,916.883,1119C916.883,1131.333,916.883,1143.667,916.883,1149.833L916.883,1156" id="edge8" class="edge-thickness-normal edge-pattern-solid transition" style="fill:none;;;fill:none" data-edge="true" data-et="edge" data-id="edge8" data-points="W3sieCI6OTE2Ljg4MjgxMjUsInkiOjEwMTR9LHsieCI6OTE2Ljg4MjgxMjUsInkiOjEwODJ9LHsieCI6OTE2Ljg4MjgxMjUsInkiOjExMTl9LHsieCI6OTE2Ljg4MjgxMjUsInkiOjExNTZ9XQ==" marker-end="url(#my-svg_stateDiagram-barbEnd)"/><path d="M954.884,1196L966.602,1202.167C978.319,1208.333,1001.753,1220.667,1013.47,1233C1025.188,1245.333,1025.188,1257.667,1025.188,1277.167C1025.188,1296.667,1025.188,1323.333,1025.188,1336.667L1025.188,1350" id="edge9" class="edge-thickness-normal edge-pattern-solid transition" style="fill:none;;;fill:none" data-edge="true" data-et="edge" data-id="edge9" data-points="W3sieCI6OTU0Ljg4NDQ1NzIzNjg0MjEsInkiOjExOTZ9LHsieCI6MTAyNS4xODc1LCJ5IjoxMjMzfSx7IngiOjEwMjUuMTg3NSwieSI6MTI3MH0seyJ4IjoxMDI1LjE4NzUsInkiOjEzNTB9XQ==" marker-end="url(#my-svg_stateDiagram-barbEnd)"/><path d="M1025.188,1390L1025.188,1403.333C1025.188,1416.667,1025.188,1443.333,1025.188,1462.833C1025.188,1482.333,1025.188,1494.667,1025.188,1507C1025.188,1519.333,1025.188,1531.667,1025.188,1537.833L1025.188,1544" id="edge10" class="edge-thickness-normal edge-pattern-solid transition" style="fill:none;;;fill:none" data-edge="true" data-et="edge" data-id="edge10" data-points="W3sieCI6MTAyNS4xODc1LCJ5IjoxMzkwfSx7IngiOjEwMjUuMTg3NSwieSI6MTQ3MH0seyJ4IjoxMDI1LjE4NzUsInkiOjE1MDd9LHsieCI6MTAyNS4xODc1LCJ5IjoxNTQ0fV0=" marker-end="url(#my-svg_stateDiagram-barbEnd)"/><path d="M677.902,136L677.902,144.167C677.902,152.333,677.902,168.667,677.902,185.667C677.902,202.667,677.902,220.333,677.902,229.167L677.902,238" id="edge11" class="edge-thickness-normal edge-pattern-solid transition" style="fill:none;;;fill:none" data-edge="true" data-et="edge" data-id="edge11" data-points="W3sieCI6Njc3LjkwMjM0Mzc1LCJ5IjoxMzZ9LHsieCI6Njc3LjkwMjM0Mzc1LCJ5IjoxODV9LHsieCI6Njc3LjkwMjM0Mzc1LCJ5IjoyMzh9XQ==" marker-end="url(#my-svg_stateDiagram-barbEnd)"/><path d="M813.023,436L820.207,422.667C827.391,409.333,841.76,382.667,848.945,363.167C856.129,343.667,856.129,331.333,856.129,315C856.129,298.667,856.129,278.333,856.129,256C856.129,233.667,856.129,209.333,830.816,187.367C805.504,165.401,754.879,145.801,729.566,136.002L704.254,126.202" id="edge12" class="edge-thickness-normal edge-pattern-solid transition" style="fill:none;;;fill:none" data-edge="true" data-et="edge" data-id="edge12" data-points="W3sieCI6ODEzLjAyMjY1NjI1LCJ5Ijo0MzZ9LHsieCI6ODU2LjEyODkwNjI1LCJ5IjozNTZ9LHsieCI6ODU2LjEyODkwNjI1LCJ5IjozMTl9LHsieCI6ODU2LjEyODkwNjI1LCJ5IjoyNTh9LHsieCI6ODU2LjEyODkwNjI1LCJ5IjoxODV9LHsieCI6NzA0LjI1MzkwNjI1LCJ5IjoxMjYuMjAxOTQ2MjU4NzEyMTR9XQ==" marker-end="url(#my-svg_stateDiagram-barbEnd)"/><path d="M405.77,267.369L364.475,275.974C323.18,284.579,240.59,301.79,199.295,316.562C158,331.333,158,343.667,158,354C158,364.333,158,372.667,158,376.833L158,381" id="Processing-Processing----note-13" class="edge-thickness-normal edge-pattern-solid transition note-edge" style="fill:none;;;fill:none" data-edge="true" data-et="edge" data-id="Processing-Processing----note-13" data-points="W3sieCI6NDA1Ljc2OTUzMTI1LCJ5IjoyNjcuMzY5MDg2ODU3MzEwNn0seyJ4IjoxNTgsInkiOjMxOX0seyJ4IjoxNTgsInkiOjM1Nn0seyJ4IjoxNTgsInkiOjM4MX1d"/><path d="M769.018,808L755.45,816.167C741.882,824.333,714.746,840.667,701.177,857C687.609,873.333,687.609,889.667,687.609,902C687.609,914.333,687.609,922.667,687.609,926.833L687.609,931" id="Approved-Approved----note-14" class="edge-thickness-normal edge-pattern-solid transition note-edge" style="fill:none;;;fill:none" data-edge="true" data-et="edge" data-id="Approved-Approved----note-14" data-points="W3sieCI6NzY5LjAxODA1OTMyOTcxMDEsInkiOjgwOH0seyJ4Ijo2ODcuNjA5Mzc1LCJ5Ijo4NTd9LHsieCI6Njg3LjYwOTM3NSwieSI6OTA2fSx7IngiOjY4Ny42MDkzNzUsInkiOjkzMX1d"/><path d="M878.881,1196L867.164,1202.167C855.447,1208.333,832.012,1220.667,820.295,1233C808.578,1245.333,808.578,1257.667,808.578,1268C808.578,1278.333,808.578,1286.667,808.578,1290.833L808.578,1295" id="Disbursed-Disbursed----note-15" class="edge-thickness-normal edge-pattern-solid transition note-edge" style="fill:none;;;fill:none" data-edge="true" data-et="edge" data-id="Disbursed-Disbursed----note-15" data-points="W3sieCI6ODc4Ljg4MTE2Nzc2MzE1NzksInkiOjExOTZ9LHsieCI6ODA4LjU3ODEyNSwieSI6MTIzM30seyJ4Ijo4MDguNTc4MTI1LCJ5IjoxMjcwfSx7IngiOjgwOC41NzgxMjUsInkiOjEyOTV9XQ=="/></g><g class="edgeLabels"><g class="edgeLabel" transform="translate(677.90234375, 59)"><g class="label" data-id="edge0" transform="translate(-65.5546875, -12)"><foreignObject width="131.109375" height="24"><div xmlns="http://www.w3.org/1999/xhtml" class="labelBkg" style="display: table-cell; white-space: nowrap; line-height: 1.5; max-width: 200px; text-align: center;"><span class="edgeLabel"><p>Admin creates run</p></span></div></foreignObject></g></g><g class="edgeLabel" transform="translate(450.73046875, 185)"><g class="label" data-id="edge1" transform="translate(-100, -24)"><foreignObject width="200" height="48"><div xmlns="http://www.w3.org/1999/xhtml" class="labelBkg" style="display: table; white-space: break-spaces; line-height: 1.5; max-width: 200px; text-align: center; width: 200px;"><span class="edgeLabel"><p>Admin initiates computation</p></span></div></foreignObject></g></g><g class="edgeLabel" transform="translate(717.12109375, 319)"><g class="label" data-id="edge2" transform="translate(-87.765625, -12)"><foreignObject width="175.53125" height="24"><div xmlns="http://www.w3.org/1999/xhtml" class="labelBkg" style="display: table-cell; white-space: nowrap; line-height: 1.5; max-width: 200px; text-align: center;"><span class="edgeLabel"><p>All employees processed</p></span></div></foreignObject></g></g><g class="edgeLabel" transform="translate(363.65234375, 319)"><g class="label" data-id="edge3" transform="translate(-82.609375, -12)"><foreignObject width="165.21875" height="24"><div xmlns="http://www.w3.org/1999/xhtml" class="labelBkg" style="display: table-cell; white-space: nowrap; line-height: 1.5; max-width: 200px; text-align: center;"><span class="edgeLabel"><p>Some employees failed</p></span></div></foreignObject></g></g><g class="edgeLabel" transform="translate(537.80859375, 319)"><g class="label" data-id="edge4" transform="translate(-71.546875, -12)"><foreignObject width="143.09375" height="24"><div xmlns="http://www.w3.org/1999/xhtml" class="labelBkg" style="display: table-cell; white-space: nowrap; line-height: 1.5; max-width: 200px; text-align: center;"><span class="edgeLabel"><p>Admin retries failed</p></span></div></foreignObject></g></g><g class="edgeLabel" transform="translate(802.24609375, 605)"><g class="label" data-id="edge5" transform="translate(-100, -24)"><foreignObject width="200" height="48"><div xmlns="http://www.w3.org/1999/xhtml" class="labelBkg" style="display: table; white-space: break-spaces; line-height: 1.5; max-width: 200px; text-align: center; width: 200px;"><span class="edgeLabel"><p>Admin reviews and validates</p></span></div></foreignObject></g></g><g class="edgeLabel" transform="translate(802.24609375, 731)"><g class="label" data-id="edge6" transform="translate(-62.203125, -12)"><foreignObject width="124.40625" height="24"><div xmlns="http://www.w3.org/1999/xhtml" class="labelBkg" style="display: table-cell; white-space: nowrap; line-height: 1.5; max-width: 200px; text-align: center;"><span class="edgeLabel"><p>Finance approves</p></span></div></foreignObject></g></g><g class="edgeLabel" transform="translate(916.8828125, 857)"><g class="label" data-id="edge7" transform="translate(-100, -24)"><foreignObject width="200" height="48"><div xmlns="http://www.w3.org/1999/xhtml" class="labelBkg" style="display: table; white-space: break-spaces; line-height: 1.5; max-width: 200px; text-align: center; width: 200px;"><span class="edgeLabel"><p>Bank file generated and sent</p></span></div></foreignObject></g></g><g class="edgeLabel" transform="translate(916.8828125, 1119)"><g class="label" data-id="edge8" transform="translate(-83.9609375, -12)"><foreignObject width="167.921875" height="24"><div xmlns="http://www.w3.org/1999/xhtml" class="labelBkg" style="display: table-cell; white-space: nowrap; line-height: 1.5; max-width: 200px; text-align: center;"><span class="edgeLabel"><p>Bank confirms payment</p></span></div></foreignObject></g></g><g class="edgeLabel" transform="translate(1025.1875, 1233)"><g class="label" data-id="edge9" transform="translate(-62.8671875, -12)"><foreignObject width="125.734375" height="24"><div xmlns="http://www.w3.org/1999/xhtml" class="labelBkg" style="display: table-cell; white-space: nowrap; line-height: 1.5; max-width: 200px; text-align: center;"><span class="edgeLabel"><p>GL entries posted</p></span></div></foreignObject></g></g><g class="edgeLabel" transform="translate(1025.1875, 1507)"><g class="label" data-id="edge10" transform="translate(-47.671875, -12)"><foreignObject width="95.34375" height="24"><div xmlns="http://www.w3.org/1999/xhtml" class="labelBkg" style="display: table-cell; white-space: nowrap; line-height: 1.5; max-width: 200px; text-align: center;"><span class="edgeLabel"><p>Period closed</p></span></div></foreignObject></g></g><g class="edgeLabel" transform="translate(677.90234375, 185)"><g class="label" data-id="edge11" transform="translate(-51.3359375, -12)"><foreignObject width="102.671875" height="24"><div xmlns="http://www.w3.org/1999/xhtml" class="labelBkg" style="display: table-cell; white-space: nowrap; line-height: 1.5; max-width: 200px; text-align: center;"><span class="edgeLabel"><p>Admin cancels</p></span></div></foreignObject></g></g><g class="edgeLabel" transform="translate(856.12890625, 258)"><g class="label" data-id="edge12" transform="translate(-100, -24)"><foreignObject width="200" height="48"><div xmlns="http://www.w3.org/1999/xhtml" class="labelBkg" style="display: table; white-space: break-spaces; line-height: 1.5; max-width: 200px; text-align: center; width: 200px;"><span class="edgeLabel"><p>Admin resets for re-computation</p></span></div></foreignObject></g></g><g class="edgeLabel"><g class="label" data-id="Processing-Processing----note-13" transform="translate(0, 0)"><foreignObject width="0" height="0"><div xmlns="http://www.w3.org/1999/xhtml" class="labelBkg" style="display: table-cell; white-space: nowrap; line-height: 1.5; max-width: 200px; text-align: center;"><span class="edgeLabel"></span></div></foreignObject></g></g><g class="edgeLabel"><g class="label" data-id="Approved-Approved----note-14" transform="translate(0, 0)"><foreignObject width="0" height="0"><div xmlns="http://www.w3.org/1999/xhtml" class="labelBkg" style="display: table-cell; white-space: nowrap; line-height: 1.5; max-width: 200px; text-align: center;"><span class="edgeLabel"></span></div></foreignObject></g></g><g class="edgeLabel"><g class="label" data-id="Disbursed-Disbursed----note-15" transform="translate(0, 0)"><foreignObject width="0" height="0"><div xmlns="http://www.w3.org/1999/xhtml" class="labelBkg" style="display: table-cell; white-space: nowrap; line-height: 1.5; max-width: 200px; text-align: center;"><span class="edgeLabel"></span></div></foreignObject></g></g></g><g class="nodes"><g class="node default" id="state-root_start-0" transform="translate(677.90234375, 15)"><circle class="state-start" r="7" width="14" height="14"/></g><g class="node  statediagram-state" id="state-Draft-12" transform="translate(677.90234375, 116)"><rect class="basic label-container" style="" rx="5" ry="5" x="-26.3515625" y="-20" width="52.703125" height="40"/><g class="label" style="" transform="translate(-18.3515625, -12)"><rect/><foreignObject width="36.703125" height="24"><div xmlns="http://www.w3.org/1999/xhtml" style="display: table-cell; white-space: nowrap; line-height: 1.5; max-width: 200px; text-align: center;"><span class="nodeLabel"><p>Draft</p></span></div></foreignObject></g></g><g class="node  statediagram-state" id="state-Processing-13" transform="translate(450.73046875, 258)"><rect class="basic label-container" style="" rx="5" ry="5" x="-44.9609375" y="-20" width="89.921875" height="40"/><g class="label" style="" transform="translate(-36.9609375, -12)"><rect/><foreignObject width="73.921875" height="24"><div xmlns="http://www.w3.org/1999/xhtml" style="display: table-cell; white-space: nowrap; line-height: 1.5; max-width: 200px; text-align: center;"><span class="nodeLabel"><p>Processing</p></span></div></foreignObject></g></g><g class="node  statediagram-state" id="state-Computed-12" transform="translate(802.24609375, 456)"><rect class="basic label-container" style="" rx="5" ry="5" x="-44.5390625" y="-20" width="89.078125" height="40"/><g class="label" style="" transform="translate(-36.5390625, -12)"><rect/><foreignObject width="73.078125" height="24"><div xmlns="http://www.w3.org/1999/xhtml" style="display: table-cell; white-space: nowrap; line-height: 1.5; max-width: 200px; text-align: center;"><span class="nodeLabel"><p>Computed</p></span></div></foreignObject></g></g><g class="node  statediagram-state" id="state-PartialFailure-4" transform="translate(399.3046875, 456)"><rect class="basic label-container" style="" rx="5" ry="5" x="-56.3046875" y="-20" width="112.609375" height="40"/><g class="label" style="" transform="translate(-48.3046875, -12)"><rect/><foreignObject width="96.609375" height="24"><div xmlns="http://www.w3.org/1999/xhtml" style="display: table-cell; white-space: nowrap; line-height: 1.5; max-width: 200px; text-align: center;"><span class="nodeLabel"><p>PartialFailure</p></span></div></foreignObject></g></g><g class="node  statediagram-state" id="state-Validated-6" transform="translate(802.24609375, 674)"><rect class="basic label-container" style="" rx="5" ry="5" x="-41.5703125" y="-20" width="83.140625" height="40"/><g class="label" style="" transform="translate(-33.5703125, -12)"><rect/><foreignObject width="67.140625" height="24"><div xmlns="http://www.w3.org/1999/xhtml" style="display: table-cell; white-space: nowrap; line-height: 1.5; max-width: 200px; text-align: center;"><span class="nodeLabel"><p>Validated</p></span></div></foreignObject></g></g><g class="node  statediagram-state" id="state-Approved-14" transform="translate(802.24609375, 788)"><rect class="basic label-container" style="" rx="5" ry="5" x="-41.7734375" y="-20" width="83.546875" height="40"/><g class="label" style="" transform="translate(-33.7734375, -12)"><rect/><foreignObject width="67.546875" height="24"><div xmlns="http://www.w3.org/1999/xhtml" style="display: table-cell; white-space: nowrap; line-height: 1.5; max-width: 200px; text-align: center;"><span class="nodeLabel"><p>Approved</p></span></div></foreignObject></g></g><g class="node  statediagram-state" id="state-Disbursing-8" transform="translate(916.8828125, 994)"><rect class="basic label-container" style="" rx="5" ry="5" x="-44.2734375" y="-20" width="88.546875" height="40"/><g class="label" style="" transform="translate(-36.2734375, -12)"><rect/><foreignObject width="72.546875" height="24"><div xmlns="http://www.w3.org/1999/xhtml" style="display: table-cell; white-space: nowrap; line-height: 1.5; max-width: 200px; text-align: center;"><span class="nodeLabel"><p>Disbursing</p></span></div></foreignObject></g></g><g class="node  statediagram-state" id="state-Disbursed-15" transform="translate(916.8828125, 1176)"><rect class="basic label-container" style="" rx="5" ry="5" x="-42.421875" y="-20" width="84.84375" height="40"/><g class="label" style="" transform="translate(-34.421875, -12)"><rect/><foreignObject width="68.84375" height="24"><div xmlns="http://www.w3.org/1999/xhtml" style="display: table-cell; white-space: nowrap; line-height: 1.5; max-width: 200px; text-align: center;"><span class="nodeLabel"><p>Disbursed</p></span></div></foreignObject></g></g><g class="node  statediagram-state" id="state-Posted-10" transform="translate(1025.1875, 1370)"><rect class="basic label-container" style="" rx="5" ry="5" x="-31.609375" y="-20" width="63.21875" height="40"/><g class="label" style="" transform="translate(-23.609375, -12)"><rect/><foreignObject width="47.21875" height="24"><div xmlns="http://www.w3.org/1999/xhtml" style="display: table-cell; white-space: nowrap; line-height: 1.5; max-width: 200px; text-align: center;"><span class="nodeLabel"><p>Posted</p></span></div></foreignObject></g></g><g class="node  statediagram-state" id="state-Closed-10" transform="translate(1025.1875, 1564)"><rect class="basic label-container" style="" rx="5" ry="5" x="-31.5" y="-20" width="63" height="40"/><g class="label" style="" transform="translate(-23.5, -12)"><rect/><foreignObject width="47" height="24"><div xmlns="http://www.w3.org/1999/xhtml" style="display: table-cell; white-space: nowrap; line-height: 1.5; max-width: 200px; text-align: center;"><span class="nodeLabel"><p>Closed</p></span></div></foreignObject></g></g><g class="node  statediagram-state" id="state-Cancelled-11" transform="translate(677.90234375, 258)"><rect class="basic label-container" style="" rx="5" ry="5" x="-43.2265625" y="-20" width="86.453125" height="40"/><g class="label" style="" transform="translate(-35.2265625, -12)"><rect/><foreignObject width="70.453125" height="24"><div xmlns="http://www.w3.org/1999/xhtml" style="display: table-cell; white-space: nowrap; line-height: 1.5; max-width: 200px; text-align: center;"><span class="nodeLabel"><p>Cancelled</p></span></div></foreignObject></g></g><g class="node statediagram-note" id="state-Processing----note-13" transform="translate(158, 456)"><g class="basic label-container"><path d="M-115 -75 L115 -75 L115 75 L-115 75" stroke="none" stroke-width="0" fill="#666" style=""/><path d="M-115 -75 C-23.001102505168618 -75, 68.99779498966276 -75, 115 -75 M-115 -75 C-31.214827285244723 -75, 52.57034542951055 -75, 115 -75 M115 -75 C115 -31.81693556502269, 115 11.366128869954622, 115 75 M115 -75 C115 -39.77979938639605, 115 -4.5595987727921, 115 75 M115 75 C42.48788874135242 75, -30.024222517295158 75, -115 75 M115 75 C25.369076526635894 75, -64.26184694672821 75, -115 75 M-115 75 C-115 27.23035320474287, -115 -20.539293590514262, -115 -75 M-115 75 C-115 41.266280950055716, -115 7.532561900111432, -115 -75" stroke="#999" stroke-width="1.3" fill="none" stroke-dasharray="0 0" style=""/></g><g class="label" style="" transform="translate(-100, -60)"><rect/><foreignObject width="200" height="120"><div xmlns="http://www.w3.org/1999/xhtml" style="display: table; white-space: break-spaces; line-height: 1.5; max-width: 200px; text-align: center; width: 200px;"><span class="nodeLabel"><p>Employee data locked.<br />Parallel computation across workers.<br />Progress tracked in real-time.</p></span></div></foreignObject></g></g><g class="node statediagram-note" id="state-Approved----note-14" transform="translate(687.609375, 994)"><g class="basic label-container"><path d="M-115 -63 L115 -63 L115 63 L-115 63" stroke="none" stroke-width="0" fill="#666" style=""/><path d="M-115 -63 C-30.21669271063928 -63, 54.56661457872144 -63, 115 -63 M-115 -63 C-32.43343424582055 -63, 50.1331315083589 -63, 115 -63 M115 -63 C115 -37.739102169520564, 115 -12.478204339041135, 115 63 M115 -63 C115 -18.007192738889216, 115 26.985614522221567, 115 63 M115 63 C65.87575725868493 63, 16.75151451736984 63, -115 63 M115 63 C46.76501441124947 63, -21.469971177501066 63, -115 63 M-115 63 C-115 21.080024419387577, -115 -20.839951161224846, -115 -63 M-115 63 C-115 23.873614134477762, -115 -15.252771731044476, -115 -63" stroke="#999" stroke-width="1.3" fill="none" stroke-dasharray="0 0" style=""/></g><g class="label" style="" transform="translate(-100, -48)"><rect/><foreignObject width="200" height="96"><div xmlns="http://www.w3.org/1999/xhtml" style="display: table; white-space: break-spaces; line-height: 1.5; max-width: 200px; text-align: center; width: 200px;"><span class="nodeLabel"><p>Approval audit trail recorded.<br />SOX control checkpoint.<br />No further edits allowed.</p></span></div></foreignObject></g></g><g class="node statediagram-note" id="state-Disbursed----note-15" transform="translate(808.578125, 1370)"><g class="basic label-container"><path d="M-115 -75 L115 -75 L115 75 L-115 75" stroke="none" stroke-width="0" fill="#666" style=""/><path d="M-115 -75 C-67.3302273990284 -75, -19.660454798056804 -75, 115 -75 M-115 -75 C-48.08156958299517 -75, 18.836860834009656 -75, 115 -75 M115 -75 C115 -29.014059325618412, 115 16.971881348763176, 115 75 M115 -75 C115 -34.623422238732296, 115 5.753155522535408, 115 75 M115 75 C34.617674409137265 75, -45.76465118172547 75, -115 75 M115 75 C32.87829026947942 75, -49.24341946104116 75, -115 75 M-115 75 C-115 16.10863871522689, -115 -42.78272256954622, -115 -75 M-115 75 C-115 21.501104515446436, -115 -31.99779096910713, -115 -75" stroke="#999" stroke-width="1.3" fill="none" stroke-dasharray="0 0" style=""/></g><g class="label" style="" transform="translate(-100, -60)"><rect/><foreignObject width="200" height="120"><div xmlns="http://www.w3.org/1999/xhtml" style="display: table; white-space: break-spaces; line-height: 1.5; max-width: 200px; text-align: center; width: 200px;"><span class="nodeLabel"><p>Pay slips generated.<br />Employee notifications sent.<br />Bank reconciliation initiated.</p></span></div></foreignObject></g></g></g></g></g></svg>