<svg id="my-svg" width="100%" xmlns="http://www.w3.org/2000/svg" xmlns:xlink="http://www.w3.org/1999/xlink" class="statediagram" style="max-width: 1831.98px; background-color: transparent;" viewBox="0 0 1831.984375 896" role="graphics-document document" aria-roledescription="stateDiagram"><style>#my-svg{font-family:"trebuchet ms",verdana,arial,sans-serif;font-size:16px;fill:#000000;}@keyframes edge-animation-frame{from{stroke-dashoffset:0;}}@keyframes dash{to{stroke-dashoffset:0;}}#my-svg .edge-animation-slow{stroke-dasharray:9,5!important;stroke-dashoffset:900;animation:dash 50s linear infinite;stroke-linecap:round;}#my-svg .edge-animation-fast{stroke-dasharray:9,5!important;stroke-dashoffset:900;animation:dash 20s linear infinite;stroke-linecap:round;}#my-svg .error-icon{fill:#552222;}#my-svg .error-text{fill:#552222;stroke:#552222;}#my-svg .edge-thickness-normal{stroke-width:1px;}#my-svg .edge-thickness-thick{stroke-width:3.5px;}#my-svg .edge-pattern-solid{stroke-dasharray:0;}#my-svg .edge-thickness-invisible{stroke-width:0;fill:none;}#my-svg .edge-pattern-dashed{stroke-dasharray:3;}#my-svg .edge-pattern-dotted{stroke-dasharray:2;}#my-svg .marker{fill:#666;stroke:#666;}#my-svg .marker.cross{stroke:#666;}#my-svg svg{font-family:"trebuchet ms",verdana,arial,sans-serif;font-size:16px;}#my-svg p{margin:0;}#my-svg defs #statediagram-barbEnd{fill:#000;stroke:#000;}#my-svg g.stateGroup text{fill:#999;stroke:none;font-size:10px;}#my-svg g.stateGroup text{fill:#000000;stroke:none;font-size:10px;}#my-svg g.stateGroup .state-title{font-weight:bolder;fill:#111111;}#my-svg g.stateGroup rect{fill:#eee;stroke:#999;}#my-svg g.stateGroup line{stroke:#666;stroke-width:1;}#my-svg .transition{stroke:#000;stroke-width:1;fill:none;}#my-svg .stateGroup .composit{fill:#ffffff;border-bottom:1px;}#my-svg .stateGroup .alt-composit{fill:#e0e0e0;border-bottom:1px;}#my-svg .state-note{stroke:#999;fill:#666;}#my-svg .state-note text{fill:#fff;stroke:none;font-size:10px;}#my-svg .stateLabel .box{stroke:none;stroke-width:0;fill:#eee;opacity:0.5;}#my-svg .edgeLabel .label rect{fill:#eee;opacity:0.5;}#my-svg .edgeLabel{background-color:white;text-align:center;}#my-svg .edgeLabel p{background-color:white;}#my-svg .edgeLabel rect{opacity:0.5;background-color:white;fill:white;}#my-svg .edgeLabel .label text{fill:#000000;}#my-svg .label div .edgeLabel{color:#000000;}#my-svg .stateLabel text{fill:#111111;font-size:10px;font-weight:bold;}#my-svg .node circle.state-start{fill:#222;stroke:#222;}#my-svg .node .fork-join{fill:#222;stroke:#222;}#my-svg .node circle.state-end{fill:hsl(0, 0%, 83.3333333333%);stroke:#ffffff;stroke-width:1.5;}#my-svg .end-state-inner{fill:#ffffff;stroke-width:1.5;}#my-svg .node rect{fill:#eee;stroke:#000;stroke-width:1px;}#my-svg .node polygon{fill:#eee;stroke:#000;stroke-width:1px;}#my-svg #statediagram-barbEnd{fill:#666;}#my-svg .statediagram-cluster rect{fill:#eee;stroke:#000;stroke-width:1px;}#my-svg .cluster-label,#my-svg .nodeLabel{color:#111111;}#my-svg .statediagram-cluster rect.outer{rx:5px;ry:5px;}#my-svg .statediagram-state .divider{stroke:#000;}#my-svg .statediagram-state .title-state{rx:5px;ry:5px;}#my-svg .statediagram-cluster.statediagram-cluster .inner{fill:#ffffff;}#my-svg .statediagram-cluster.statediagram-cluster-alt .inner{fill:#f4f4f4;}#my-svg .statediagram-cluster .inner{rx:0;ry:0;}#my-svg .statediagram-state rect.basic{rx:5px;ry:5px;}#my-svg .statediagram-state rect.divider{stroke-dasharray:10,10;fill:#f4f4f4;}#my-svg .note-edge{stroke-dasharray:5;}#my-svg .statediagram-note rect{fill:#666;stroke:#999;stroke-width:1px;rx:0;ry:0;}#my-svg .statediagram-note rect{fill:#666;stroke:#999;stroke-width:1px;rx:0;ry:0;}#my-svg .statediagram-note text{fill:#fff;}#my-svg .statediagram-note .nodeLabel{color:#fff;}#my-svg .statediagram .edgeLabel{color:red;}#my-svg #dependencyStart,#my-svg #dependencyEnd{fill:#666;stroke:#666;stroke-width:1;}#my-svg .statediagramTitleText{text-anchor:middle;font-size:18px;fill:#000000;}#my-svg :root{--mermaid-font-family:"trebuchet ms",verdana,arial,sans-serif;}</style><g><defs><marker id="my-svg_stateDiagram-barbEnd" refX="19" refY="7" markerWidth="20" markerHeight="14" markerUnits="userSpaceOnUse" orient="auto"><path d="M 19,7 L9,13 L14,7 L9,1 Z"/></marker></defs><g class="root"><g class="clusters"><g class="note-cluster" id="ActiveUnacknowledged----parent"><rect x="8" y="300" width="300" height="176" fill="none"/></g><g class="note-cluster" id="Shelved----parent"><rect x="1523.984375" y="688" width="300" height="200" fill="none"/></g></g><g class="edgePaths"><path d="M1048.266,22L1048.266,26.167C1048.266,30.333,1048.266,38.667,1048.266,47C1048.266,55.333,1048.266,63.667,1048.266,67.833L1048.266,72" id="edge0" class="edge-thickness-normal edge-pattern-solid transition" style="fill:none;;;fill:none" data-edge="true" data-et="edge" data-id="edge0" data-points="W3sieCI6MTA0OC4yNjU2MjUsInkiOjIyfSx7IngiOjEwNDguMjY1NjI1LCJ5Ijo0N30seyJ4IjoxMDQ4LjI2NTYyNSwieSI6NzJ9XQ==" marker-end="url(#my-svg_stateDiagram-barbEnd)"/><path d="M1014.555,96.748L952.719,105.456C890.884,114.165,767.214,131.583,705.378,146.458C643.543,161.333,643.543,173.667,643.543,179.833L643.543,186" id="edge1" class="edge-thickness-normal edge-pattern-solid transition" style="fill:none;;;fill:none" data-edge="true" data-et="edge" data-id="edge1" data-points="W3sieCI6MTAxNC41NTQ2ODc1LCJ5Ijo5Ni43NDc3NTM1NzM1MzEyNn0seyJ4Ijo2NDMuNTQyOTY4NzUsInkiOjE0OX0seyJ4Ijo2NDMuNTQyOTY4NzUsInkiOjE4Nn1d" marker-end="url(#my-svg_stateDiagram-barbEnd)"/><path d="M732.152,226L759.473,232.167C786.794,238.333,841.436,250.667,868.757,263C896.078,275.333,896.078,287.667,896.078,305.167C896.078,322.667,896.078,345.333,896.078,356.667L896.078,368" id="edge2" class="edge-thickness-normal edge-pattern-solid transition" style="fill:none;;;fill:none" data-edge="true" data-et="edge" data-id="edge2" data-points="W3sieCI6NzMyLjE1MTc5NTUwNDM4NiwieSI6MjI2fSx7IngiOjg5Ni4wNzgxMjUsInkiOjI2M30seyJ4Ijo4OTYuMDc4MTI1LCJ5IjozMDB9LHsieCI6ODk2LjA3ODEyNSwieSI6MzY4fV0=" marker-end="url(#my-svg_stateDiagram-barbEnd)"/><path d="M661.436,226L666.953,232.167C672.471,238.333,683.505,250.667,689.022,263C694.539,275.333,694.539,287.667,694.539,308.5C694.539,329.333,694.539,358.667,694.539,388C694.539,417.333,694.539,446.667,694.539,467.5C694.539,488.333,694.539,500.667,694.539,513C694.539,525.333,694.539,537.667,694.539,543.833L694.539,550" id="edge3" class="edge-thickness-normal edge-pattern-solid transition" style="fill:none;;;fill:none" data-edge="true" data-et="edge" data-id="edge3" data-points="W3sieCI6NjYxLjQzNjMzNDk3ODA3MDEsInkiOjIyNn0seyJ4Ijo2OTQuNTM5MDYyNSwieSI6MjYzfSx7IngiOjY5NC41MzkwNjI1LCJ5IjozMDB9LHsieCI6Njk0LjUzOTA2MjUsInkiOjM4OH0seyJ4Ijo2OTQuNTM5MDYyNSwieSI6NDc2fSx7IngiOjY5NC41MzkwNjI1LCJ5Ijo1MTN9LHsieCI6Njk0LjUzOTA2MjUsInkiOjU1MH1d" marker-end="url(#my-svg_stateDiagram-barbEnd)"/><path d="M814.313,402.659L746.131,414.882C677.949,427.106,541.586,451.553,473.404,469.943C405.223,488.333,405.223,500.667,405.223,516.333C405.223,532,405.223,551,405.223,572C405.223,593,405.223,616,405.223,635.667C405.223,655.333,405.223,671.667,482.063,693.854C558.902,716.042,712.582,744.084,789.422,758.105L866.262,772.126" id="edge4" class="edge-thickness-normal edge-pattern-solid transition" style="fill:none;;;fill:none" data-edge="true" data-et="edge" data-id="edge4" data-points="W3sieCI6ODE0LjMxMjUsInkiOjQwMi42NTg4NDY1NjA5MzA4fSx7IngiOjQwNS4yMjI2NTYyNSwieSI6NDc2fSx7IngiOjQwNS4yMjI2NTYyNSwieSI6NTEzfSx7IngiOjQwNS4yMjI2NTYyNSwieSI6NTcwfSx7IngiOjQwNS4yMjI2NTYyNSwieSI6NjM5fSx7IngiOjQwNS4yMjI2NTYyNSwieSI6Njg4fSx7IngiOjg2Ni4yNjE3MTg3NSwieSI6NzcyLjEyNjQxODQyOTYwNn1d" marker-end="url(#my-svg_stateDiagram-barbEnd)"/><path d="M694.539,590L694.539,598.167C694.539,606.333,694.539,622.667,694.539,639C694.539,655.333,694.539,671.667,729.034,693.167C763.53,714.667,832.52,741.333,867.016,754.667L901.511,768" id="edge5" class="edge-thickness-normal edge-pattern-solid transition" style="fill:none;;;fill:none" data-edge="true" data-et="edge" data-id="edge5" data-points="W3sieCI6Njk0LjUzOTA2MjUsInkiOjU5MH0seyJ4Ijo2OTQuNTM5MDYyNSwieSI6NjM5fSx7IngiOjY5NC41MzkwNjI1LCJ5Ijo2ODh9LHsieCI6OTAxLjUxMDkzNzUsInkiOjc2OH1d" marker-end="url(#my-svg_stateDiagram-barbEnd)"/><path d="M1040.246,772.204L1117.536,758.17C1194.826,744.136,1349.405,716.068,1426.695,693.867C1503.984,671.667,1503.984,655.333,1503.984,635.667C1503.984,616,1503.984,593,1503.984,572C1503.984,551,1503.984,532,1503.984,516.333C1503.984,500.667,1503.984,488.333,1503.984,467.5C1503.984,446.667,1503.984,417.333,1503.984,388C1503.984,358.667,1503.984,329.333,1503.984,308.5C1503.984,287.667,1503.984,275.333,1503.984,259.667C1503.984,244,1503.984,225,1503.984,206C1503.984,187,1503.984,168,1433.65,149.703C1363.315,131.405,1222.646,113.811,1152.311,105.014L1081.977,96.216" id="edge6" class="edge-thickness-normal edge-pattern-solid transition" style="fill:none;;;fill:none" data-edge="true" data-et="edge" data-id="edge6" data-points="W3sieCI6MTA0MC4yNDYwOTM3NSwieSI6NzcyLjIwNDIxNzQxMDExNTh9LHsieCI6MTUwMy45ODQzNzUsInkiOjY4OH0seyJ4IjoxNTAzLjk4NDM3NSwieSI6NjM5fSx7IngiOjE1MDMuOTg0Mzc1LCJ5Ijo1NzB9LHsieCI6MTUwMy45ODQzNzUsInkiOjUxM30seyJ4IjoxNTAzLjk4NDM3NSwieSI6NDc2fSx7IngiOjE1MDMuOTg0Mzc1LCJ5IjozODh9LHsieCI6MTUwMy45ODQzNzUsInkiOjMwMH0seyJ4IjoxNTAzLjk4NDM3NSwieSI6MjYzfSx7IngiOjE1MDMuOTg0Mzc1LCJ5IjoyMDZ9LHsieCI6MTUwMy45ODQzNzUsInkiOjE0OX0seyJ4IjoxMDgxLjk3NjU2MjUsInkiOjk2LjIxNjQ2NzgwNDk3ODR9XQ==" marker-end="url(#my-svg_stateDiagram-barbEnd)"/><path d="M734.348,217.28L795.691,224.9C857.034,232.52,979.72,247.76,1041.063,261.547C1102.406,275.333,1102.406,287.667,1102.406,308.5C1102.406,329.333,1102.406,358.667,1102.406,388C1102.406,417.333,1102.406,446.667,1102.406,467.5C1102.406,488.333,1102.406,500.667,1114.72,513.24C1127.034,525.813,1151.661,538.625,1163.975,545.031L1176.289,551.438" id="edge7" class="edge-thickness-normal edge-pattern-solid transition" style="fill:none;;;fill:none" data-edge="true" data-et="edge" data-id="edge7" data-points="W3sieCI6NzM0LjM0NzY1NjI1LCJ5IjoyMTcuMjc5NzU4OTE1MTE4MDR9LHsieCI6MTEwMi40MDYyNSwieSI6MjYzfSx7IngiOjExMDIuNDA2MjUsInkiOjMwMH0seyJ4IjoxMTAyLjQwNjI1LCJ5IjozODh9LHsieCI6MTEwMi40MDYyNSwieSI6NDc2fSx7IngiOjExMDIuNDA2MjUsInkiOjUxM30seyJ4IjoxMTc2LjI4OTA2MjUsInkiOjU1MS40Mzc2MDY5NTk0OTh9XQ==" marker-end="url(#my-svg_stateDiagram-barbEnd)"/><path d="M967.871,408L1008.554,419.333C1049.237,430.667,1130.603,453.333,1171.286,470.833C1211.969,488.333,1211.969,500.667,1211.969,513C1211.969,525.333,1211.969,537.667,1211.969,543.833L1211.969,550" id="edge8" class="edge-thickness-normal edge-pattern-solid transition" style="fill:none;;;fill:none" data-edge="true" data-et="edge" data-id="edge8" data-points="W3sieCI6OTY3Ljg3MTQ0ODg2MzYzNjQsInkiOjQwOH0seyJ4IjoxMjExLjk2ODc1LCJ5Ijo0NzZ9LHsieCI6MTIxMS45Njg3NSwieSI6NTEzfSx7IngiOjEyMTEuOTY4NzUsInkiOjU1MH1d" marker-end="url(#my-svg_stateDiagram-barbEnd)"/><path d="M1247.648,551.438L1259.962,545.031C1272.276,538.625,1296.904,525.813,1309.217,513.24C1321.531,500.667,1321.531,488.333,1321.531,467.5C1321.531,446.667,1321.531,417.333,1321.531,388C1321.531,358.667,1321.531,329.333,1321.531,308.5C1321.531,287.667,1321.531,275.333,1223.667,260.939C1125.803,246.545,930.076,230.089,832.212,221.862L734.348,213.634" id="edge9" class="edge-thickness-normal edge-pattern-solid transition" style="fill:none;;;fill:none" data-edge="true" data-et="edge" data-id="edge9" data-points="W3sieCI6MTI0Ny42NDg0Mzc1LCJ5Ijo1NTEuNDM3NjA2OTU5NDk4fSx7IngiOjEzMjEuNTMxMjUsInkiOjUxM30seyJ4IjoxMzIxLjUzMTI1LCJ5Ijo0NzZ9LHsieCI6MTMyMS41MzEyNSwieSI6Mzg4fSx7IngiOjEzMjEuNTMxMjUsInkiOjMwMH0seyJ4IjoxMzIxLjUzMTI1LCJ5IjoyNjN9LHsieCI6NzM0LjM0NzY1NjI1LCJ5IjoyMTMuNjM0MTU0MzUxMzk1NzJ9XQ==" marker-end="url(#my-svg_stateDiagram-barbEnd)"/><path d="M1211.969,590L1211.969,598.167C1211.969,606.333,1211.969,622.667,1211.969,639C1211.969,655.333,1211.969,671.667,1177.473,693.167C1142.978,714.667,1073.988,741.333,1039.492,754.667L1004.997,768" id="edge10" class="edge-thickness-normal edge-pattern-solid transition" style="fill:none;;;fill:none" data-edge="true" data-et="edge" data-id="edge10" data-points="W3sieCI6MTIxMS45Njg3NSwieSI6NTkwfSx7IngiOjEyMTEuOTY4NzUsInkiOjYzOX0seyJ4IjoxMjExLjk2ODc1LCJ5Ijo2ODh9LHsieCI6MTAwNC45OTY4NzUsInkiOjc2OH1d" marker-end="url(#my-svg_stateDiagram-barbEnd)"/><path d="M552.738,224.219L520.524,230.683C488.31,237.146,423.882,250.073,391.667,262.703C359.453,275.333,359.453,287.667,365.452,305.167C371.451,322.667,383.448,345.333,389.447,356.667L395.445,368" id="edge11" class="edge-thickness-normal edge-pattern-solid transition" style="fill:none;;;fill:none" data-edge="true" data-et="edge" data-id="edge11" data-points="W3sieCI6NTUyLjczODI4MTI1LCJ5IjoyMjQuMjE5MTIwODIxNzAzMX0seyJ4IjozNTkuNDUzMTI1LCJ5IjoyNjN9LHsieCI6MzU5LjQ1MzEyNSwieSI6MzAwfSx7IngiOjM5NS40NDUzMTI1LCJ5IjozNjh9XQ==" marker-end="url(#my-svg_stateDiagram-barbEnd)"/><path d="M439.797,368L458.931,356.667C478.065,345.333,516.333,322.667,535.468,305.167C554.602,287.667,554.602,275.333,564.224,263C573.846,250.667,593.091,238.333,602.713,232.167L612.335,226" id="edge12" class="edge-thickness-normal edge-pattern-solid transition" style="fill:none;;;fill:none" data-edge="true" data-et="edge" data-id="edge12" data-points="W3sieCI6NDM5Ljc5NzIzMDExMzYzNjQsInkiOjM2OH0seyJ4Ijo1NTQuNjAxNTYyNSwieSI6MzAwfSx7IngiOjU1NC42MDE1NjI1LCJ5IjoyNjN9LHsieCI6NjEyLjMzNTQ1Nzc4NTA4NzcsInkiOjIyNn1d" marker-end="url(#my-svg_stateDiagram-barbEnd)"/><path d="M552.738,216.66L486.949,224.383C421.159,232.107,289.579,247.553,223.79,261.443C158,275.333,158,287.667,158,298C158,308.333,158,316.667,158,320.833L158,325" id="ActiveUnacknowledged-ActiveUnacknowledged----note-13" class="edge-thickness-normal edge-pattern-solid transition note-edge" style="fill:none;;;fill:none" data-edge="true" data-et="edge" data-id="ActiveUnacknowledged-ActiveUnacknowledged----note-13" data-points="W3sieCI6NTUyLjczODI4MTI1LCJ5IjoyMTYuNjU5OTU3MDM5MDc1MTJ9LHsieCI6MTU4LCJ5IjoyNjN9LHsieCI6MTU4LCJ5IjozMDB9LHsieCI6MTU4LCJ5IjozMjV9XQ=="/><path d="M1247.648,575.329L1318.704,585.941C1389.76,596.552,1531.872,617.776,1602.928,636.555C1673.984,655.333,1673.984,671.667,1673.984,684C1673.984,696.333,1673.984,704.667,1673.984,708.833L1673.984,713" id="Shelved-Shelved----note-14" class="edge-thickness-normal edge-pattern-solid transition note-edge" style="fill:none;;;fill:none" data-edge="true" data-et="edge" data-id="Shelved-Shelved----note-14" data-points="W3sieCI6MTI0Ny42NDg0Mzc1LCJ5Ijo1NzUuMzI4NjA0MjgxNTExfSx7IngiOjE2NzMuOTg0Mzc1LCJ5Ijo2Mzl9LHsieCI6MTY3My45ODQzNzUsInkiOjY4OH0seyJ4IjoxNjczLjk4NDM3NSwieSI6NzEzfV0="/></g><g class="edgeLabels"><g class="edgeLabel"><g class="label" data-id="edge0" transform="translate(0, 0)"><foreignObject width="0" height="0"><div xmlns="http://www.w3.org/1999/xhtml" class="labelBkg" style="display: table-cell; white-space: nowrap; line-height: 1.5; max-width: 200px; text-align: center;"><span class="edgeLabel"></span></div></foreignObject></g></g><g class="edgeLabel" transform="translate(643.54296875, 149)"><g class="label" data-id="edge1" transform="translate(-64.28125, -12)"><foreignObject width="128.5625" height="24"><div xmlns="http://www.w3.org/1999/xhtml" class="labelBkg" style="display: table-cell; white-space: nowrap; line-height: 1.5; max-width: 200px; text-align: center;"><span class="edgeLabel"><p>Threshold crossed</p></span></div></foreignObject></g></g><g class="edgeLabel" transform="translate(896.078125, 263)"><g class="label" data-id="edge2" transform="translate(-84.125, -12)"><foreignObject width="168.25" height="24"><div xmlns="http://www.w3.org/1999/xhtml" class="labelBkg" style="display: table-cell; white-space: nowrap; line-height: 1.5; max-width: 200px; text-align: center;"><span class="edgeLabel"><p>Operator acknowledges</p></span></div></foreignObject></g></g><g class="edgeLabel" transform="translate(694.5390625, 388)"><g class="label" data-id="edge3" transform="translate(-84.7734375, -12)"><foreignObject width="169.546875" height="24"><div xmlns="http://www.w3.org/1999/xhtml" class="labelBkg" style="display: table-cell; white-space: nowrap; line-height: 1.5; max-width: 200px; text-align: center;"><span class="edgeLabel"><p>Value returns to normal</p></span></div></foreignObject></g></g><g class="edgeLabel" transform="translate(405.22265625, 570)"><g class="label" data-id="edge4" transform="translate(-84.7734375, -12)"><foreignObject width="169.546875" height="24"><div xmlns="http://www.w3.org/1999/xhtml" class="labelBkg" style="display: table-cell; white-space: nowrap; line-height: 1.5; max-width: 200px; text-align: center;"><span class="edgeLabel"><p>Value returns to normal</p></span></div></foreignObject></g></g><g class="edgeLabel" transform="translate(694.5390625, 639)"><g class="label" data-id="edge5" transform="translate(-84.125, -12)"><foreignObject width="168.25" height="24"><div xmlns="http://www.w3.org/1999/xhtml" class="labelBkg" style="display: table-cell; white-space: nowrap; line-height: 1.5; max-width: 200px; text-align: center;"><span class="edgeLabel"><p>Operator acknowledges</p></span></div></foreignObject></g></g><g class="edgeLabel" transform="translate(1503.984375, 388)"><g class="label" data-id="edge6" transform="translate(-94.34375, -12)"><foreignObject width="188.6875" height="24"><div xmlns="http://www.w3.org/1999/xhtml" class="labelBkg" style="display: table-cell; white-space: nowrap; line-height: 1.5; max-width: 200px; text-align: center;"><span class="edgeLabel"><p>Auto-reset after cooldown</p></span></div></foreignObject></g></g><g class="edgeLabel" transform="translate(1102.40625, 388)"><g class="label" data-id="edge7" transform="translate(-89.5625, -12)"><foreignObject width="179.125" height="24"><div xmlns="http://www.w3.org/1999/xhtml" class="labelBkg" style="display: table-cell; white-space: nowrap; line-height: 1.5; max-width: 200px; text-align: center;"><span class="edgeLabel"><p>Operator shelves (timed)</p></span></div></foreignObject></g></g><g class="edgeLabel" transform="translate(1211.96875, 513)"><g class="label" data-id="edge8" transform="translate(-89.5625, -12)"><foreignObject width="179.125" height="24"><div xmlns="http://www.w3.org/1999/xhtml" class="labelBkg" style="display: table-cell; white-space: nowrap; line-height: 1.5; max-width: 200px; text-align: center;"><span class="edgeLabel"><p>Operator shelves (timed)</p></span></div></foreignObject></g></g><g class="edgeLabel" transform="translate(1321.53125, 388)"><g class="label" data-id="edge9" transform="translate(-68.109375, -12)"><foreignObject width="136.21875" height="24"><div xmlns="http://www.w3.org/1999/xhtml" class="labelBkg" style="display: table-cell; white-space: nowrap; line-height: 1.5; max-width: 200px; text-align: center;"><span class="edgeLabel"><p>Shelf timer expires</p></span></div></foreignObject></g></g><g class="edgeLabel" transform="translate(1211.96875, 639)"><g class="label" data-id="edge10" transform="translate(-100, -24)"><foreignObject width="200" height="48"><div xmlns="http://www.w3.org/1999/xhtml" class="labelBkg" style="display: table; white-space: break-spaces; line-height: 1.5; max-width: 200px; text-align: center; width: 200px;"><span class="edgeLabel"><p>Shelf timer expires + condition cleared</p></span></div></foreignObject></g></g><g class="edgeLabel" transform="translate(359.453125, 263)"><g class="label" data-id="edge11" transform="translate(-82.953125, -12)"><foreignObject width="165.90625" height="24"><div xmlns="http://www.w3.org/1999/xhtml" class="labelBkg" style="display: table-cell; white-space: nowrap; line-height: 1.5; max-width: 200px; text-align: center;"><span class="edgeLabel"><p>Suppression rule active</p></span></div></foreignObject></g></g><g class="edgeLabel" transform="translate(554.6015625, 263)"><g class="label" data-id="edge12" transform="translate(-92.1953125, -12)"><foreignObject width="184.390625" height="24"><div xmlns="http://www.w3.org/1999/xhtml" class="labelBkg" style="display: table-cell; white-space: nowrap; line-height: 1.5; max-width: 200px; text-align: center;"><span class="edgeLabel"><p>Suppression rule removed</p></span></div></foreignObject></g></g><g class="edgeLabel"><g class="label" data-id="ActiveUnacknowledged-ActiveUnacknowledged----note-13" transform="translate(0, 0)"><foreignObject width="0" height="0"><div xmlns="http://www.w3.org/1999/xhtml" class="labelBkg" style="display: table-cell; white-space: nowrap; line-height: 1.5; max-width: 200px; text-align: center;"><span class="edgeLabel"></span></div></foreignObject></g></g><g class="edgeLabel"><g class="label" data-id="Shelved-Shelved----note-14" transform="translate(0, 0)"><foreignObject width="0" height="0"><div xmlns="http://www.w3.org/1999/xhtml" class="labelBkg" style="display: table-cell; white-space: nowrap; line-height: 1.5; max-width: 200px; text-align: center;"><span class="edgeLabel"></span></div></foreignObject></g></g></g><g class="nodes"><g class="node default" id="state-root_start-0" transform="translate(1048.265625, 15)"><circle class="state-start" r="7" width="14" height="14"/></g><g class="node  statediagram-state" id="state-Normal-6" transform="translate(1048.265625, 92)"><rect class="basic label-container" style="" rx="5" ry="5" x="-33.7109375" y="-20" width="67.421875" height="40"/><g class="label" style="" transform="translate(-25.7109375, -12)"><rect/><foreignObject width="51.421875" height="24"><div xmlns="http://www.w3.org/1999/xhtml" style="display: table-cell; white-space: nowrap; line-height: 1.5; max-width: 200px; text-align: center;"><span class="nodeLabel"><p>Normal</p></span></div></foreignObject></g></g><g class="node  statediagram-state" id="state-ActiveUnacknowledged-13" transform="translate(643.54296875, 206)"><rect class="basic label-container" style="" rx="5" ry="5" x="-90.8046875" y="-20" width="181.609375" height="40"/><g class="label" style="" transform="translate(-82.8046875, -12)"><rect/><foreignObject width="165.609375" height="24"><div xmlns="http://www.w3.org/1999/xhtml" style="display: table-cell; white-space: nowrap; line-height: 1.5; max-width: 200px; text-align: center;"><span class="nodeLabel"><p>ActiveUnacknowledged</p></span></div></foreignObject></g></g><g class="node  statediagram-state" id="state-ActiveAcknowledged-8" transform="translate(896.078125, 388)"><rect class="basic label-container" style="" rx="5" ry="5" x="-81.765625" y="-20" width="163.53125" height="40"/><g class="label" style="" transform="translate(-73.765625, -12)"><rect/><foreignObject width="147.53125" height="24"><div xmlns="http://www.w3.org/1999/xhtml" style="display: table-cell; white-space: nowrap; line-height: 1.5; max-width: 200px; text-align: center;"><span class="nodeLabel"><p>ActiveAcknowledged</p></span></div></foreignObject></g></g><g class="node  statediagram-state" id="state-ClearedUnacknowledged-5" transform="translate(694.5390625, 570)"><rect class="basic label-container" style="" rx="5" ry="5" x="-96.03125" y="-20" width="192.0625" height="40"/><g class="label" style="" transform="translate(-88.03125, -12)"><rect/><foreignObject width="176.0625" height="24"><div xmlns="http://www.w3.org/1999/xhtml" style="display: table-cell; white-space: nowrap; line-height: 1.5; max-width: 200px; text-align: center;"><span class="nodeLabel"><p>ClearedUnacknowledged</p></span></div></foreignObject></g></g><g class="node  statediagram-state" id="state-ClearedAcknowledged-10" transform="translate(953.25390625, 788)"><rect class="basic label-container" style="" rx="5" ry="5" x="-86.9921875" y="-20" width="173.984375" height="40"/><g class="label" style="" transform="translate(-78.9921875, -12)"><rect/><foreignObject width="157.984375" height="24"><div xmlns="http://www.w3.org/1999/xhtml" style="display: table-cell; white-space: nowrap; line-height: 1.5; max-width: 200px; text-align: center;"><span class="nodeLabel"><p>ClearedAcknowledged</p></span></div></foreignObject></g></g><g class="node  statediagram-state" id="state-Shelved-14" transform="translate(1211.96875, 570)"><rect class="basic label-container" style="" rx="5" ry="5" x="-35.6796875" y="-20" width="71.359375" height="40"/><g class="label" style="" transform="translate(-27.6796875, -12)"><rect/><foreignObject width="55.359375" height="24"><div xmlns="http://www.w3.org/1999/xhtml" style="display: table-cell; white-space: nowrap; line-height: 1.5; max-width: 200px; text-align: center;"><span class="nodeLabel"><p>Shelved</p></span></div></foreignObject></g></g><g class="node  statediagram-state" id="state-Suppressed-12" transform="translate(406.03125, 388)"><rect class="basic label-container" style="" rx="5" ry="5" x="-47.90625" y="-20" width="95.8125" height="40"/><g class="label" style="" transform="translate(-39.90625, -12)"><rect/><foreignObject width="79.8125" height="24"><div xmlns="http://www.w3.org/1999/xhtml" style="display: table-cell; white-space: nowrap; line-height: 1.5; max-width: 200px; text-align: center;"><span class="nodeLabel"><p>Suppressed</p></span></div></foreignObject></g></g><g class="node statediagram-note" id="state-ActiveUnacknowledged----note-13" transform="translate(158, 388)"><g class="basic label-container"><path d="M-115 -63 L115 -63 L115 63 L-115 63" stroke="none" stroke-width="0" fill="#666" style=""/><path d="M-115 -63 C-43.069623123677204 -63, 28.860753752645593 -63, 115 -63 M-115 -63 C-48.06038023082981 -63, 18.879239538340386 -63, 115 -63 M115 -63 C115 -36.07783358547932, 115 -9.155667170958637, 115 63 M115 -63 C115 -13.524448042241396, 115 35.95110391551721, 115 63 M115 63 C25.24286280568198 63, -64.51427438863604 63, -115 63 M115 63 C35.422678757944226 63, -44.15464248411155 63, -115 63 M-115 63 C-115 26.869189496648794, -115 -9.261621006702413, -115 -63 M-115 63 C-115 20.692914400194233, -115 -21.614171199611533, -115 -63" stroke="#999" stroke-width="1.3" fill="none" stroke-dasharray="0 0" style=""/></g><g class="label" style="" transform="translate(-100, -48)"><rect/><foreignObject width="200" height="96"><div xmlns="http://www.w3.org/1999/xhtml" style="display: table; white-space: break-spaces; line-height: 1.5; max-width: 200px; text-align: center; width: 200px;"><span class="nodeLabel"><p>Alarm is active and<br />no operator has seen it.<br />Audible/visual annunciation.</p></span></div></foreignObject></g></g><g class="node statediagram-note" id="state-Shelved----note-14" transform="translate(1673.984375, 788)"><g class="basic label-container"><path d="M-115 -75 L115 -75 L115 75 L-115 75" stroke="none" stroke-width="0" fill="#666" style=""/><path d="M-115 -75 C-36.579223821630336 -75, 41.84155235673933 -75, 115 -75 M-115 -75 C-51.824660494713235 -75, 11.35067901057353 -75, 115 -75 M115 -75 C115 -42.64251863977824, 115 -10.285037279556477, 115 75 M115 -75 C115 -35.012464037986426, 115 4.975071924027148, 115 75 M115 75 C44.690871035718146 75, -25.618257928563708 75, -115 75 M115 75 C56.31389970002613 75, -2.372200599947746 75, -115 75 M-115 75 C-115 23.494959693159835, -115 -28.01008061368033, -115 -75 M-115 75 C-115 16.713295406342233, -115 -41.573409187315534, -115 -75" stroke="#999" stroke-width="1.3" fill="none" stroke-dasharray="0 0" style=""/></g><g class="label" style="" transform="translate(-100, -60)"><rect/><foreignObject width="200" height="120"><div xmlns="http://www.w3.org/1999/xhtml" style="display: table; white-space: break-spaces; line-height: 1.5; max-width: 200px; text-align: center; width: 200px;"><span class="nodeLabel"><p>Temporarily hidden from<br />operator view. Auto-unshelves.<br />Max shelf duration enforced.</p></span></div></foreignObject></g></g></g></g></g></svg>