<svg id="my-svg" width="100%" xmlns="http://www.w3.org/2000/svg" xmlns:xlink="http://www.w3.org/1999/xlink" class="statediagram" style="max-width: 993.32px; background-color: transparent;" viewBox="0 0 993.3203125 1022" role="graphics-document document" aria-roledescription="stateDiagram"><style>#my-svg{font-family:"trebuchet ms",verdana,arial,sans-serif;font-size:16px;fill:#000000;}@keyframes edge-animation-frame{from{stroke-dashoffset:0;}}@keyframes dash{to{stroke-dashoffset:0;}}#my-svg .edge-animation-slow{stroke-dasharray:9,5!important;stroke-dashoffset:900;animation:dash 50s linear infinite;stroke-linecap:round;}#my-svg .edge-animation-fast{stroke-dasharray:9,5!important;stroke-dashoffset:900;animation:dash 20s linear infinite;stroke-linecap:round;}#my-svg .error-icon{fill:#552222;}#my-svg .error-text{fill:#552222;stroke:#552222;}#my-svg .edge-thickness-normal{stroke-width:1px;}#my-svg .edge-thickness-thick{stroke-width:3.5px;}#my-svg .edge-pattern-solid{stroke-dasharray:0;}#my-svg .edge-thickness-invisible{stroke-width:0;fill:none;}#my-svg .edge-pattern-dashed{stroke-dasharray:3;}#my-svg .edge-pattern-dotted{stroke-dasharray:2;}#my-svg .marker{fill:#666;stroke:#666;}#my-svg .marker.cross{stroke:#666;}#my-svg svg{font-family:"trebuchet ms",verdana,arial,sans-serif;font-size:16px;}#my-svg p{margin:0;}#my-svg defs #statediagram-barbEnd{fill:#000;stroke:#000;}#my-svg g.stateGroup text{fill:#999;stroke:none;font-size:10px;}#my-svg g.stateGroup text{fill:#000000;stroke:none;font-size:10px;}#my-svg g.stateGroup .state-title{font-weight:bolder;fill:#111111;}#my-svg g.stateGroup rect{fill:#eee;stroke:#999;}#my-svg g.stateGroup line{stroke:#666;stroke-width:1;}#my-svg .transition{stroke:#000;stroke-width:1;fill:none;}#my-svg .stateGroup .composit{fill:#ffffff;border-bottom:1px;}#my-svg .stateGroup .alt-composit{fill:#e0e0e0;border-bottom:1px;}#my-svg .state-note{stroke:#999;fill:#666;}#my-svg .state-note text{fill:#fff;stroke:none;font-size:10px;}#my-svg .stateLabel .box{stroke:none;stroke-width:0;fill:#eee;opacity:0.5;}#my-svg .edgeLabel .label rect{fill:#eee;opacity:0.5;}#my-svg .edgeLabel{background-color:white;text-align:center;}#my-svg .edgeLabel p{background-color:white;}#my-svg .edgeLabel rect{opacity:0.5;background-color:white;fill:white;}#my-svg .edgeLabel .label text{fill:#000000;}#my-svg .label div .edgeLabel{color:#000000;}#my-svg .stateLabel text{fill:#111111;font-size:10px;font-weight:bold;}#my-svg .node circle.state-start{fill:#222;stroke:#222;}#my-svg .node .fork-join{fill:#222;stroke:#222;}#my-svg .node circle.state-end{fill:hsl(0, 0%, 83.3333333333%);stroke:#ffffff;stroke-width:1.5;}#my-svg .end-state-inner{fill:#ffffff;stroke-width:1.5;}#my-svg .node rect{fill:#eee;stroke:#000;stroke-width:1px;}#my-svg .node polygon{fill:#eee;stroke:#000;stroke-width:1px;}#my-svg #statediagram-barbEnd{fill:#666;}#my-svg .statediagram-cluster rect{fill:#eee;stroke:#000;stroke-width:1px;}#my-svg .cluster-label,#my-svg .nodeLabel{color:#111111;}#my-svg .statediagram-cluster rect.outer{rx:5px;ry:5px;}#my-svg .statediagram-state .divider{stroke:#000;}#my-svg .statediagram-state .title-state{rx:5px;ry:5px;}#my-svg .statediagram-cluster.statediagram-cluster .inner{fill:#ffffff;}#my-svg .statediagram-cluster.statediagram-cluster-alt .inner{fill:#f4f4f4;}#my-svg .statediagram-cluster .inner{rx:0;ry:0;}#my-svg .statediagram-state rect.basic{rx:5px;ry:5px;}#my-svg .statediagram-state rect.divider{stroke-dasharray:10,10;fill:#f4f4f4;}#my-svg .note-edge{stroke-dasharray:5;}#my-svg .statediagram-note rect{fill:#666;stroke:#999;stroke-width:1px;rx:0;ry:0;}#my-svg .statediagram-note rect{fill:#666;stroke:#999;stroke-width:1px;rx:0;ry:0;}#my-svg .statediagram-note text{fill:#fff;}#my-svg .statediagram-note .nodeLabel{color:#fff;}#my-svg .statediagram .edgeLabel{color:red;}#my-svg #dependencyStart,#my-svg #dependencyEnd{fill:#666;stroke:#666;stroke-width:1;}#my-svg .statediagramTitleText{text-anchor:middle;font-size:18px;fill:#000000;}#my-svg :root{--mermaid-font-family:"trebuchet ms",verdana,arial,sans-serif;}</style><g><defs><marker id="my-svg_stateDiagram-barbEnd" refX="19" refY="7" markerWidth="20" markerHeight="14" markerUnits="userSpaceOnUse" orient="auto"><path d="M 19,7 L9,13 L14,7 L9,1 Z"/></marker></defs><g class="root"><g class="clusters"/><g class="edgePaths"><path d="M228,22L228,28.167C228,34.333,228,46.667,228,59C228,71.333,228,83.667,228,89.833L228,96" id="edge0" class="edge-thickness-normal edge-pattern-solid transition" style="fill:none;;;fill:none" data-edge="true" data-et="edge" data-id="edge0" data-points="W3sieCI6MjI4LCJ5IjoyMn0seyJ4IjoyMjgsInkiOjU5fSx7IngiOjIyOCwieSI6OTZ9XQ==" marker-end="url(#my-svg_stateDiagram-barbEnd)"/><path d="M269.781,122.856L320.712,131.213C371.643,139.571,473.505,156.285,524.436,171.476C575.367,186.667,575.367,200.333,575.367,207.167L575.367,214" id="edge1" class="edge-thickness-normal edge-pattern-solid transition" style="fill:none;;;fill:none" data-edge="true" data-et="edge" data-id="edge1" data-points="W3sieCI6MjY5Ljc4MTI1LCJ5IjoxMjIuODU1OTQ3NjQxODU5NTN9LHsieCI6NTc1LjM2NzE4NzUsInkiOjE3M30seyJ4Ijo1NzUuMzY3MTg3NSwieSI6MjE0fV0=" marker-end="url(#my-svg_stateDiagram-barbEnd)"/><path d="M589.022,254L595.053,262.833C601.084,271.667,613.145,289.333,619.176,306.333C625.207,323.333,625.207,339.667,625.207,347.833L625.207,356" id="edge2" class="edge-thickness-normal edge-pattern-solid transition" style="fill:none;;;fill:none" data-edge="true" data-et="edge" data-id="edge2" data-points="W3sieCI6NTg5LjAyMTkzOTIxMjMyODgsInkiOjI1NH0seyJ4Ijo2MjUuMjA3MDMxMjUsInkiOjMwN30seyJ4Ijo2MjUuMjA3MDMxMjUsInkiOjM1Nn1d" marker-end="url(#my-svg_stateDiagram-barbEnd)"/><path d="M625.133,245.423L669.846,255.685C714.56,265.948,803.987,286.474,848.701,308.237C893.414,330,893.414,353,893.414,374C893.414,395,893.414,414,893.414,433C893.414,452,893.414,471,893.414,492C893.414,513,893.414,536,893.414,559C893.414,582,893.414,605,893.414,628C893.414,651,893.414,674,893.414,697C893.414,720,893.414,743,893.414,764C893.414,785,893.414,804,875.881,819.667C858.347,835.333,823.28,847.667,805.747,853.833L788.213,860" id="edge3" class="edge-thickness-normal edge-pattern-solid transition" style="fill:none;;;fill:none" data-edge="true" data-et="edge" data-id="edge3" data-points="W3sieCI6NjI1LjEzMjgxMjUsInkiOjI0NS40MjI1MDA2MTQwOTk3M30seyJ4Ijo4OTMuNDE0MDYyNSwieSI6MzA3fSx7IngiOjg5My40MTQwNjI1LCJ5IjozNzZ9LHsieCI6ODkzLjQxNDA2MjUsInkiOjQzM30seyJ4Ijo4OTMuNDE0MDYyNSwieSI6NDkwfSx7IngiOjg5My40MTQwNjI1LCJ5Ijo1NTl9LHsieCI6ODkzLjQxNDA2MjUsInkiOjYyOH0seyJ4Ijo4OTMuNDE0MDYyNSwieSI6Njk3fSx7IngiOjg5My40MTQwNjI1LCJ5Ijo3NjZ9LHsieCI6ODkzLjQxNDA2MjUsInkiOjgyM30seyJ4Ijo3ODguMjEzMDYxOTUxNzU0NCwieSI6ODYwfV0=" marker-end="url(#my-svg_stateDiagram-barbEnd)"/><path d="M525.602,247.851L490.182,257.709C454.763,267.567,383.924,287.284,343.47,305.309C303.015,323.333,292.945,339.667,287.91,347.833L282.874,356" id="edge4" class="edge-thickness-normal edge-pattern-solid transition" style="fill:none;;;fill:none" data-edge="true" data-et="edge" data-id="edge4" data-points="W3sieCI6NTI1LjYwMTU2MjUsInkiOjI0Ny44NTExMjU5MzgyODE5fSx7IngiOjMxMy4wODU5Mzc1LCJ5IjozMDd9LHsieCI6MjgyLjg3NDI2NDAzOTg1NTA2LCJ5IjozNTZ9XQ==" marker-end="url(#my-svg_stateDiagram-barbEnd)"/><path d="M672.949,867.301L638.995,859.917C605.042,852.534,537.134,837.767,503.18,820.883C469.227,804,469.227,785,469.227,764C469.227,743,469.227,720,469.227,697C469.227,674,469.227,651,469.227,628C469.227,605,469.227,582,488.261,562.08C507.296,542.16,545.365,525.319,564.399,516.899L583.434,508.479" id="edge5" class="edge-thickness-normal edge-pattern-solid transition" style="fill:none;;;fill:none" data-edge="true" data-et="edge" data-id="edge5" data-points="W3sieCI6NjcyLjk0OTIxODc1LCJ5Ijo4NjcuMzAwODY1ODMzMTIyMn0seyJ4Ijo0NjkuMjI2NTYyNSwieSI6ODIzfSx7IngiOjQ2OS4yMjY1NjI1LCJ5Ijo3NjZ9LHsieCI6NDY5LjIyNjU2MjUsInkiOjY5N30seyJ4Ijo0NjkuMjI2NTYyNSwieSI6NjI4fSx7IngiOjQ2OS4yMjY1NjI1LCJ5Ijo1NTl9LHsieCI6NTgzLjQzMzU5Mzc1LCJ5Ijo1MDguNDc5MDI2MzIwNDAyN31d" marker-end="url(#my-svg_stateDiagram-barbEnd)"/><path d="M731.348,900L731.348,906.167C731.348,912.333,731.348,924.667,679.494,939.252C627.641,953.838,523.934,970.676,472.08,979.095L420.227,987.514" id="edge6" class="edge-thickness-normal edge-pattern-solid transition" style="fill:none;;;fill:none" data-edge="true" data-et="edge" data-id="edge6" data-points="W3sieCI6NzMxLjM0NzY1NjI1LCJ5Ijo5MDB9LHsieCI6NzMxLjM0NzY1NjI1LCJ5Ijo5Mzd9LHsieCI6NDIwLjIyNjU2MjUsInkiOjk4Ny41MTQzODE0MDQ4NzEzfV0=" marker-end="url(#my-svg_stateDiagram-barbEnd)"/><path d="M625.207,396L625.207,402.167C625.207,408.333,625.207,420.667,625.207,433C625.207,445.333,625.207,457.667,625.207,463.833L625.207,470" id="edge7" class="edge-thickness-normal edge-pattern-solid transition" style="fill:none;;;fill:none" data-edge="true" data-et="edge" data-id="edge7" data-points="W3sieCI6NjI1LjIwNzAzMTI1LCJ5IjozOTZ9LHsieCI6NjI1LjIwNzAzMTI1LCJ5Ijo0MzN9LHsieCI6NjI1LjIwNzAzMTI1LCJ5Ijo0NzB9XQ==" marker-end="url(#my-svg_stateDiagram-barbEnd)"/><path d="M641.526,510L648.19,518.167C654.853,526.333,668.181,542.667,674.844,559C681.508,575.333,681.508,591.667,681.508,599.833L681.508,608" id="edge8" class="edge-thickness-normal edge-pattern-solid transition" style="fill:none;;;fill:none" data-edge="true" data-et="edge" data-id="edge8" data-points="W3sieCI6NjQxLjUyNjA5ODI3ODk4NTUsInkiOjUxMH0seyJ4Ijo2ODEuNTA3ODEyNSwieSI6NTU5fSx7IngiOjY4MS41MDc4MTI1LCJ5Ijo2MDh9XQ==" marker-end="url(#my-svg_stateDiagram-barbEnd)"/><path d="M681.508,648L681.508,656.167C681.508,664.333,681.508,680.667,681.508,697C681.508,713.333,681.508,729.667,681.508,737.833L681.508,746" id="edge9" class="edge-thickness-normal edge-pattern-solid transition" style="fill:none;;;fill:none" data-edge="true" data-et="edge" data-id="edge9" data-points="W3sieCI6NjgxLjUwNzgxMjUsInkiOjY0OH0seyJ4Ijo2ODEuNTA3ODEyNSwieSI6Njk3fSx7IngiOjY4MS41MDc4MTI1LCJ5Ijo3NDZ9XQ==" marker-end="url(#my-svg_stateDiagram-barbEnd)"/><path d="M681.508,786L681.508,792.167C681.508,798.333,681.508,810.667,686.9,823C692.292,835.333,703.076,847.667,708.468,853.833L713.86,860" id="edge10" class="edge-thickness-normal edge-pattern-solid transition" style="fill:none;;;fill:none" data-edge="true" data-et="edge" data-id="edge10" data-points="W3sieCI6NjgxLjUwNzgxMjUsInkiOjc4Nn0seyJ4Ijo2ODEuNTA3ODEyNSwieSI6ODIzfSx7IngiOjcxMy44NTk5OTE3NzYzMTU4LCJ5Ijo4NjB9XQ==" marker-end="url(#my-svg_stateDiagram-barbEnd)"/><path d="M340.336,985.638L301.613,977.531C262.891,969.425,185.445,953.213,146.723,935.606C108,918,108,899,108,880C108,861,108,842,108,823C108,804,108,785,108,764C108,743,108,720,108,697C108,674,108,651,108,628C108,605,108,582,108,559C108,536,108,513,108,492C108,471,108,452,108,433C108,414,108,395,108,374C108,353,108,330,108,306.333C108,282.667,108,258.333,108,236C108,213.667,108,193.333,121.036,176.974C134.073,160.615,160.146,148.231,173.182,142.038L186.219,135.846" id="edge11" class="edge-thickness-normal edge-pattern-solid transition" style="fill:none;;;fill:none" data-edge="true" data-et="edge" data-id="edge11" data-points="W3sieCI6MzQwLjMzNTkzNzUsInkiOjk4NS42Mzc3NTM5MzA5MDc4fSx7IngiOjEwOCwieSI6OTM3fSx7IngiOjEwOCwieSI6ODgwfSx7IngiOjEwOCwieSI6ODIzfSx7IngiOjEwOCwieSI6NzY2fSx7IngiOjEwOCwieSI6Njk3fSx7IngiOjEwOCwieSI6NjI4fSx7IngiOjEwOCwieSI6NTU5fSx7IngiOjEwOCwieSI6NDkwfSx7IngiOjEwOCwieSI6NDMzfSx7IngiOjEwOCwieSI6Mzc2fSx7IngiOjEwOCwieSI6MzA3fSx7IngiOjEwOCwieSI6MjM0fSx7IngiOjEwOCwieSI6MTczfSx7IngiOjE4Ni4yMTg3NSwieSI6MTM1Ljg0NjA5Mzc1fV0=" marker-end="url(#my-svg_stateDiagram-barbEnd)"/><path d="M258.212,356L253.176,347.833C248.141,339.667,238.071,323.333,233.035,303C228,282.667,228,258.333,228,236C228,213.667,228,193.333,228,177C228,160.667,228,148.333,228,142.167L228,136" id="edge12" class="edge-thickness-normal edge-pattern-solid transition" style="fill:none;;;fill:none" data-edge="true" data-et="edge" data-id="edge12" data-points="W3sieCI6MjU4LjIxMTY3MzQ2MDE0NDk0LCJ5IjozNTZ9LHsieCI6MjI4LCJ5IjozMDd9LHsieCI6MjI4LCJ5IjoyMzR9LHsieCI6MjI4LCJ5IjoxNzN9LHsieCI6MjI4LCJ5IjoxMzZ9XQ==" marker-end="url(#my-svg_stateDiagram-barbEnd)"/><path d="M651.094,632.943L585.402,643.619C519.711,654.295,388.328,675.648,322.637,694.49C256.945,713.333,256.945,729.667,256.945,737.833L256.945,746" id="edge13" class="edge-thickness-normal edge-pattern-solid transition" style="fill:none;;;fill:none" data-edge="true" data-et="edge" data-id="edge13" data-points="W3sieCI6NjUxLjA5Mzc1LCJ5Ijo2MzIuOTQyOTAwNzgwMjE0OX0seyJ4IjoyNTYuOTQ1MzEyNSwieSI6Njk3fSx7IngiOjI1Ni45NDUzMTI1LCJ5Ijo3NDZ9XQ==" marker-end="url(#my-svg_stateDiagram-barbEnd)"/><path d="M256.945,786L256.945,792.167C256.945,798.333,256.945,810.667,256.945,825.167C256.945,839.667,256.945,856.333,256.945,864.667L256.945,873" id="edge14" class="edge-thickness-normal edge-pattern-solid transition" style="fill:none;;;fill:none" data-edge="true" data-et="edge" data-id="edge14" data-points="W3sieCI6MjU2Ljk0NTMxMjUsInkiOjc4Nn0seyJ4IjoyNTYuOTQ1MzEyNSwieSI6ODIzfSx7IngiOjI1Ni45NDUzMTI1LCJ5Ijo4NzN9XQ==" marker-end="url(#my-svg_stateDiagram-barbEnd)"/></g><g class="edgeLabels"><g class="edgeLabel" transform="translate(228, 59)"><g class="label" data-id="edge0" transform="translate(-85.3671875, -12)"><foreignObject width="170.734375" height="24"><div xmlns="http://www.w3.org/1999/xhtml" class="labelBkg" style="display: table-cell; white-space: nowrap; line-height: 1.5; max-width: 200px; text-align: center;"><span class="edgeLabel"><p>creative asset uploaded</p></span></div></foreignObject></g></g><g class="edgeLabel" transform="translate(575.3671875, 173)"><g class="label" data-id="edge1" transform="translate(-92.359375, -12)"><foreignObject width="184.71875" height="24"><div xmlns="http://www.w3.org/1999/xhtml" class="labelBkg" style="display: table-cell; white-space: nowrap; line-height: 1.5; max-width: 200px; text-align: center;"><span class="edgeLabel"><p>automated scan triggered</p></span></div></foreignObject></g></g><g class="edgeLabel" transform="translate(625.20703125, 307)"><g class="label" data-id="edge2" transform="translate(-100, -24)"><foreignObject width="200" height="48"><div xmlns="http://www.w3.org/1999/xhtml" class="labelBkg" style="display: table; white-space: break-spaces; line-height: 1.5; max-width: 200px; text-align: center; width: 200px;"><span class="edgeLabel"><p>passes all automated checks</p></span></div></foreignObject></g></g><g class="edgeLabel" transform="translate(893.4140625, 559)"><g class="label" data-id="edge3" transform="translate(-91.90625, -12)"><foreignObject width="183.8125" height="24"><div xmlns="http://www.w3.org/1999/xhtml" class="labelBkg" style="display: table-cell; white-space: nowrap; line-height: 1.5; max-width: 200px; text-align: center;"><span class="edgeLabel"><p>flagged for human review</p></span></div></foreignObject></g></g><g class="edgeLabel" transform="translate(391.61516, 285.14318)"><g class="label" data-id="edge4" transform="translate(-65.0859375, -12)"><foreignObject width="130.171875" height="24"><div xmlns="http://www.w3.org/1999/xhtml" class="labelBkg" style="display: table-cell; white-space: nowrap; line-height: 1.5; max-width: 200px; text-align: center;"><span class="edgeLabel"><p>fails policy checks</p></span></div></foreignObject></g></g><g class="edgeLabel" transform="translate(469.2265625, 697)"><g class="label" data-id="edge5" transform="translate(-92.28125, -12)"><foreignObject width="184.5625" height="24"><div xmlns="http://www.w3.org/1999/xhtml" class="labelBkg" style="display: table-cell; white-space: nowrap; line-height: 1.5; max-width: 200px; text-align: center;"><span class="edgeLabel"><p>human reviewer approves</p></span></div></foreignObject></g></g><g class="edgeLabel" transform="translate(731.34765625, 937)"><g class="label" data-id="edge6" transform="translate(-85.3828125, -12)"><foreignObject width="170.765625" height="24"><div xmlns="http://www.w3.org/1999/xhtml" class="labelBkg" style="display: table-cell; white-space: nowrap; line-height: 1.5; max-width: 200px; text-align: center;"><span class="edgeLabel"><p>human reviewer rejects</p></span></div></foreignObject></g></g><g class="edgeLabel" transform="translate(625.20703125, 433)"><g class="label" data-id="edge7" transform="translate(-91.7109375, -12)"><foreignObject width="183.421875" height="24"><div xmlns="http://www.w3.org/1999/xhtml" class="labelBkg" style="display: table-cell; white-space: nowrap; line-height: 1.5; max-width: 200px; text-align: center;"><span class="edgeLabel"><p>no further review needed</p></span></div></foreignObject></g></g><g class="edgeLabel" transform="translate(681.5078125, 559)"><g class="label" data-id="edge8" transform="translate(-100, -24)"><foreignObject width="200" height="48"><div xmlns="http://www.w3.org/1999/xhtml" class="labelBkg" style="display: table; white-space: break-spaces; line-height: 1.5; max-width: 200px; text-align: center; width: 200px;"><span class="edgeLabel"><p>assigned to active campaign</p></span></div></foreignObject></g></g><g class="edgeLabel" transform="translate(681.5078125, 697)"><g class="label" data-id="edge9" transform="translate(-100, -24)"><foreignObject width="200" height="48"><div xmlns="http://www.w3.org/1999/xhtml" class="labelBkg" style="display: table; white-space: break-spaces; line-height: 1.5; max-width: 200px; text-align: center; width: 200px;"><span class="edgeLabel"><p>post-serve policy violation detected</p></span></div></foreignObject></g></g><g class="edgeLabel" transform="translate(681.5078125, 823)"><g class="label" data-id="edge10" transform="translate(-69.6953125, -12)"><foreignObject width="139.390625" height="24"><div xmlns="http://www.w3.org/1999/xhtml" class="labelBkg" style="display: table-cell; white-space: nowrap; line-height: 1.5; max-width: 200px; text-align: center;"><span class="edgeLabel"><p>re-review triggered</p></span></div></foreignObject></g></g><g class="edgeLabel" transform="translate(108, 559)"><g class="label" data-id="edge11" transform="translate(-100, -24)"><foreignObject width="200" height="48"><div xmlns="http://www.w3.org/1999/xhtml" class="labelBkg" style="display: table; white-space: break-spaces; line-height: 1.5; max-width: 200px; text-align: center; width: 200px;"><span class="edgeLabel"><p>advertiser uploads revised creative</p></span></div></foreignObject></g></g><g class="edgeLabel" transform="translate(228, 234)"><g class="label" data-id="edge12" transform="translate(-100, -24)"><foreignObject width="200" height="48"><div xmlns="http://www.w3.org/1999/xhtml" class="labelBkg" style="display: table; white-space: break-spaces; line-height: 1.5; max-width: 200px; text-align: center; width: 200px;"><span class="edgeLabel"><p>advertiser uploads revised creative</p></span></div></foreignObject></g></g><g class="edgeLabel" transform="translate(256.9453125, 697)"><g class="label" data-id="edge13" transform="translate(-100, -24)"><foreignObject width="200" height="48"><div xmlns="http://www.w3.org/1999/xhtml" class="labelBkg" style="display: table; white-space: break-spaces; line-height: 1.5; max-width: 200px; text-align: center; width: 200px;"><span class="edgeLabel"><p>removed from all campaigns</p></span></div></foreignObject></g></g><g class="edgeLabel"><g class="label" data-id="edge14" transform="translate(0, 0)"><foreignObject width="0" height="0"><div xmlns="http://www.w3.org/1999/xhtml" class="labelBkg" style="display: table-cell; white-space: nowrap; line-height: 1.5; max-width: 200px; text-align: center;"><span class="edgeLabel"></span></div></foreignObject></g></g></g><g class="nodes"><g class="node default" id="state-root_start-0" transform="translate(228, 15)"><circle class="state-start" r="7" width="14" height="14"/></g><g class="node  statediagram-state" id="state-Uploaded-12" transform="translate(228, 116)"><rect class="basic label-container" style="" rx="5" ry="5" x="-41.78125" y="-20" width="83.5625" height="40"/><g class="label" style="" transform="translate(-33.78125, -12)"><rect/><foreignObject width="67.5625" height="24"><div xmlns="http://www.w3.org/1999/xhtml" style="display: table-cell; white-space: nowrap; line-height: 1.5; max-width: 200px; text-align: center;"><span class="nodeLabel"><p>Uploaded</p></span></div></foreignObject></g></g><g class="node  statediagram-state" id="state-AutoReview-4" transform="translate(575.3671875, 234)"><rect class="basic label-container" style="" rx="5" ry="5" x="-49.765625" y="-20" width="99.53125" height="40"/><g class="label" style="" transform="translate(-41.765625, -12)"><rect/><foreignObject width="83.53125" height="24"><div xmlns="http://www.w3.org/1999/xhtml" style="display: table-cell; white-space: nowrap; line-height: 1.5; max-width: 200px; text-align: center;"><span class="nodeLabel"><p>AutoReview</p></span></div></foreignObject></g></g><g class="node  statediagram-state" id="state-AutoApproved-7" transform="translate(625.20703125, 376)"><rect class="basic label-container" style="" rx="5" ry="5" x="-58.328125" y="-20" width="116.65625" height="40"/><g class="label" style="" transform="translate(-50.328125, -12)"><rect/><foreignObject width="100.65625" height="24"><div xmlns="http://www.w3.org/1999/xhtml" style="display: table-cell; white-space: nowrap; line-height: 1.5; max-width: 200px; text-align: center;"><span class="nodeLabel"><p>AutoApproved</p></span></div></foreignObject></g></g><g class="node  statediagram-state" id="state-ManualReview-10" transform="translate(731.34765625, 880)"><rect class="basic label-container" style="" rx="5" ry="5" x="-58.3984375" y="-20" width="116.796875" height="40"/><g class="label" style="" transform="translate(-50.3984375, -12)"><rect/><foreignObject width="100.796875" height="24"><div xmlns="http://www.w3.org/1999/xhtml" style="display: table-cell; white-space: nowrap; line-height: 1.5; max-width: 200px; text-align: center;"><span class="nodeLabel"><p>ManualReview</p></span></div></foreignObject></g></g><g class="node  statediagram-state" id="state-AutoRejected-12" transform="translate(270.54296875, 376)"><rect class="basic label-container" style="" rx="5" ry="5" x="-56.5" y="-20" width="113" height="40"/><g class="label" style="" transform="translate(-48.5, -12)"><rect/><foreignObject width="97" height="24"><div xmlns="http://www.w3.org/1999/xhtml" style="display: table-cell; white-space: nowrap; line-height: 1.5; max-width: 200px; text-align: center;"><span class="nodeLabel"><p>AutoRejected</p></span></div></foreignObject></g></g><g class="node  statediagram-state" id="state-Approved-8" transform="translate(625.20703125, 490)"><rect class="basic label-container" style="" rx="5" ry="5" x="-41.7734375" y="-20" width="83.546875" height="40"/><g class="label" style="" transform="translate(-33.7734375, -12)"><rect/><foreignObject width="67.546875" height="24"><div xmlns="http://www.w3.org/1999/xhtml" style="display: table-cell; white-space: nowrap; line-height: 1.5; max-width: 200px; text-align: center;"><span class="nodeLabel"><p>Approved</p></span></div></foreignObject></g></g><g class="node  statediagram-state" id="state-Rejected-11" transform="translate(380.28125, 994)"><rect class="basic label-container" style="" rx="5" ry="5" x="-39.9453125" y="-20" width="79.890625" height="40"/><g class="label" style="" transform="translate(-31.9453125, -12)"><rect/><foreignObject width="63.890625" height="24"><div xmlns="http://www.w3.org/1999/xhtml" style="display: table-cell; white-space: nowrap; line-height: 1.5; max-width: 200px; text-align: center;"><span class="nodeLabel"><p>Rejected</p></span></div></foreignObject></g></g><g class="node  statediagram-state" id="state-Active-13" transform="translate(681.5078125, 628)"><rect class="basic label-container" style="" rx="5" ry="5" x="-30.4140625" y="-20" width="60.828125" height="40"/><g class="label" style="" transform="translate(-22.4140625, -12)"><rect/><foreignObject width="44.828125" height="24"><div xmlns="http://www.w3.org/1999/xhtml" style="display: table-cell; white-space: nowrap; line-height: 1.5; max-width: 200px; text-align: center;"><span class="nodeLabel"><p>Active</p></span></div></foreignObject></g></g><g class="node  statediagram-state" id="state-Suspended-10" transform="translate(681.5078125, 766)"><rect class="basic label-container" style="" rx="5" ry="5" x="-45.9296875" y="-20" width="91.859375" height="40"/><g class="label" style="" transform="translate(-37.9296875, -12)"><rect/><foreignObject width="75.859375" height="24"><div xmlns="http://www.w3.org/1999/xhtml" style="display: table-cell; white-space: nowrap; line-height: 1.5; max-width: 200px; text-align: center;"><span class="nodeLabel"><p>Suspended</p></span></div></foreignObject></g></g><g class="node  statediagram-state" id="state-Retired-14" transform="translate(256.9453125, 766)"><rect class="basic label-container" style="" rx="5" ry="5" x="-34.078125" y="-20" width="68.15625" height="40"/><g class="label" style="" transform="translate(-26.078125, -12)"><rect/><foreignObject width="52.15625" height="24"><div xmlns="http://www.w3.org/1999/xhtml" style="display: table-cell; white-space: nowrap; line-height: 1.5; max-width: 200px; text-align: center;"><span class="nodeLabel"><p>Retired</p></span></div></foreignObject></g></g><g class="node default" id="state-root_end-14" transform="translate(256.9453125, 880)"><g><path d="M7 0 C7 0.40517908122283747, 6.964012880168563 0.816513743121899, 6.893654271085456 1.2155372436685123 C6.823295662002349 1.6145607442151257, 6.716427752933756 2.013397210557766, 6.5778483455013586 2.394141003279681 C6.439268938068961 2.7748847960015954, 6.26476736710249 3.149104622578984, 6.062177826491071 3.4999999999999996 C5.859588285879653 3.8508953774210153, 5.622755194947063 4.189128084166967, 5.362311101832846 4.499513267805774 C5.10186700871863 4.809898451444582, 4.809898451444583 5.10186700871863, 4.499513267805775 5.362311101832846 C4.189128084166968 5.622755194947063, 3.8508953774210166 5.859588285879652, 3.500000000000001 6.06217782649107 C3.149104622578985 6.264767367102489, 2.7748847960015963 6.439268938068961, 2.3941410032796817 6.5778483455013586 C2.013397210557767 6.716427752933756, 1.6145607442151264 6.823295662002349, 1.2155372436685128 6.893654271085456 C0.8165137431218992 6.964012880168563, 0.4051790812228379 7, 4.286263797015736e-16 7 C-0.405179081222837 7, -0.8165137431218985 6.964012880168563, -1.2155372436685121 6.893654271085456 C-1.6145607442151257 6.823295662002349, -2.0133972105577667 6.716427752933756, -2.394141003279681 6.5778483455013586 C-2.774884796001595 6.439268938068961, -3.149104622578983 6.26476736710249, -3.4999999999999982 6.062177826491071 C-3.8508953774210135 5.859588285879653, -4.189128084166966 5.6227551949470636, -4.499513267805773 5.362311101832848 C-4.809898451444581 5.101867008718632, -5.101867008718628 4.809898451444586, -5.3623111018328435 4.499513267805779 C-5.622755194947059 4.189128084166971, -5.859588285879649 3.8508953774210206, -6.062177826491068 3.5000000000000053 C-6.264767367102486 3.14910462257899, -6.439268938068958 2.774884796001602, -6.577848345501356 2.394141003279688 C-6.716427752933754 2.0133972105577738, -6.823295662002347 1.614560744215134, -6.893654271085454 1.215537243668521 C-6.9640128801685615 0.816513743121908, -6.999999999999999 0.4051790812228472, -7 1.0183126166254463e-14 C-7.000000000000001 -0.40517908122282686, -6.964012880168565 -0.8165137431218878, -6.893654271085459 -1.215537243668501 C-6.823295662002352 -1.6145607442151142, -6.716427752933759 -2.0133972105577542, -6.577848345501363 -2.394141003279669 C-6.439268938068967 -2.7748847960015834, -6.264767367102496 -3.149104622578972, -6.062177826491078 -3.4999999999999876 C-5.859588285879661 -3.8508953774210033, -5.6227551949470715 -4.1891280841669545, -5.362311101832856 -4.499513267805763 C-5.10186700871864 -4.809898451444571, -4.809898451444594 -5.10186700871862, -4.499513267805787 -5.362311101832836 C-4.189128084166979 -5.622755194947053, -3.850895377421028 -5.859588285879643, -3.5000000000000133 -6.062177826491062 C-3.1491046225789985 -6.264767367102482, -2.774884796001611 -6.439268938068954, -2.3941410032796973 -6.577848345501353 C-2.0133972105577835 -6.716427752933752, -1.6145607442151435 -6.823295662002345, -1.2155372436685306 -6.893654271085453 C-0.8165137431219176 -6.9640128801685615, -0.40517908122285695 -6.999999999999999, -1.9937625952807352e-14 -7 C0.4051790812228171 -7.000000000000001, 0.8165137431218781 -6.964012880168565, 1.2155372436684913 -6.89365427108546 C1.6145607442151044 -6.823295662002354, 2.013397210557745 -6.716427752933763, 2.3941410032796595 -6.5778483455013665 C2.774884796001574 -6.43926893806897, 3.149104622578963 -6.2647673671025, 3.499999999999979 -6.062177826491083 C3.8508953774209953 -5.859588285879665, 4.189128084166947 -5.622755194947077, 4.499513267805756 -5.362311101832862 C4.809898451444564 -5.1018670087186475, 5.101867008718613 -4.809898451444602, 5.362311101832829 -4.499513267805796 C5.622755194947046 -4.189128084166989, 5.859588285879637 -3.8508953774210393, 6.062177826491056 -3.500000000000025 C6.2647673671024755 -3.1491046225790105, 6.439268938068949 -2.774884796001623, 6.577848345501348 -2.3941410032797092 C6.716427752933747 -2.0133972105577955, 6.823295662002342 -1.6145607442151562, 6.893654271085451 -1.2155372436685434 C6.96401288016856 -0.8165137431219307, 6.982275711847575 -0.2025895406114567, 7 -3.2800750208310675e-14 C7.017724288152425 0.2025895406113911, 7.017724288152424 -0.2025895406114242, 7 0" stroke="none" stroke-width="0" fill="#eee" style=""/><path d="M7 0 C7 0.40517908122283747, 6.964012880168563 0.816513743121899, 6.893654271085456 1.2155372436685123 C6.823295662002349 1.6145607442151257, 6.716427752933756 2.013397210557766, 6.5778483455013586 2.394141003279681 C6.439268938068961 2.7748847960015954, 6.26476736710249 3.149104622578984, 6.062177826491071 3.4999999999999996 C5.859588285879653 3.8508953774210153, 5.622755194947063 4.189128084166967, 5.362311101832846 4.499513267805774 C5.10186700871863 4.809898451444582, 4.809898451444583 5.10186700871863, 4.499513267805775 5.362311101832846 C4.189128084166968 5.622755194947063, 3.8508953774210166 5.859588285879652, 3.500000000000001 6.06217782649107 C3.149104622578985 6.264767367102489, 2.7748847960015963 6.439268938068961, 2.3941410032796817 6.5778483455013586 C2.013397210557767 6.716427752933756, 1.6145607442151264 6.823295662002349, 1.2155372436685128 6.893654271085456 C0.8165137431218992 6.964012880168563, 0.4051790812228379 7, 4.286263797015736e-16 7 C-0.405179081222837 7, -0.8165137431218985 6.964012880168563, -1.2155372436685121 6.893654271085456 C-1.6145607442151257 6.823295662002349, -2.0133972105577667 6.716427752933756, -2.394141003279681 6.5778483455013586 C-2.774884796001595 6.439268938068961, -3.149104622578983 6.26476736710249, -3.4999999999999982 6.062177826491071 C-3.8508953774210135 5.859588285879653, -4.189128084166966 5.6227551949470636, -4.499513267805773 5.362311101832848 C-4.809898451444581 5.101867008718632, -5.101867008718628 4.809898451444586, -5.3623111018328435 4.499513267805779 C-5.622755194947059 4.189128084166971, -5.859588285879649 3.8508953774210206, -6.062177826491068 3.5000000000000053 C-6.264767367102486 3.14910462257899, -6.439268938068958 2.774884796001602, -6.577848345501356 2.394141003279688 C-6.716427752933754 2.0133972105577738, -6.823295662002347 1.614560744215134, -6.893654271085454 1.215537243668521 C-6.9640128801685615 0.816513743121908, -6.999999999999999 0.4051790812228472, -7 1.0183126166254463e-14 C-7.000000000000001 -0.40517908122282686, -6.964012880168565 -0.8165137431218878, -6.893654271085459 -1.215537243668501 C-6.823295662002352 -1.6145607442151142, -6.716427752933759 -2.0133972105577542, -6.577848345501363 -2.394141003279669 C-6.439268938068967 -2.7748847960015834, -6.264767367102496 -3.149104622578972, -6.062177826491078 -3.4999999999999876 C-5.859588285879661 -3.8508953774210033, -5.6227551949470715 -4.1891280841669545, -5.362311101832856 -4.499513267805763 C-5.10186700871864 -4.809898451444571, -4.809898451444594 -5.10186700871862, -4.499513267805787 -5.362311101832836 C-4.189128084166979 -5.622755194947053, -3.850895377421028 -5.859588285879643, -3.5000000000000133 -6.062177826491062 C-3.1491046225789985 -6.264767367102482, -2.774884796001611 -6.439268938068954, -2.3941410032796973 -6.577848345501353 C-2.0133972105577835 -6.716427752933752, -1.6145607442151435 -6.823295662002345, -1.2155372436685306 -6.893654271085453 C-0.8165137431219176 -6.9640128801685615, -0.40517908122285695 -6.999999999999999, -1.9937625952807352e-14 -7 C0.4051790812228171 -7.000000000000001, 0.8165137431218781 -6.964012880168565, 1.2155372436684913 -6.89365427108546 C1.6145607442151044 -6.823295662002354, 2.013397210557745 -6.716427752933763, 2.3941410032796595 -6.5778483455013665 C2.774884796001574 -6.43926893806897, 3.149104622578963 -6.2647673671025, 3.499999999999979 -6.062177826491083 C3.8508953774209953 -5.859588285879665, 4.189128084166947 -5.622755194947077, 4.499513267805756 -5.362311101832862 C4.809898451444564 -5.1018670087186475, 5.101867008718613 -4.809898451444602, 5.362311101832829 -4.499513267805796 C5.622755194947046 -4.189128084166989, 5.859588285879637 -3.8508953774210393, 6.062177826491056 -3.500000000000025 C6.2647673671024755 -3.1491046225790105, 6.439268938068949 -2.774884796001623, 6.577848345501348 -2.3941410032797092 C6.716427752933747 -2.0133972105577955, 6.823295662002342 -1.6145607442151562, 6.893654271085451 -1.2155372436685434 C6.96401288016856 -0.8165137431219307, 6.982275711847575 -0.2025895406114567, 7 -3.2800750208310675e-14 C7.017724288152425 0.2025895406113911, 7.017724288152424 -0.2025895406114242, 7 0" stroke="#666" stroke-width="2" fill="none" stroke-dasharray="0 0" style=""/><g><path d="M2.5 0 C2.5 0.14470681472244193, 2.487147457203058 0.29161205111496386, 2.46201938253052 0.4341204441673258 C2.436891307857982 0.5766288372196877, 2.3987241974763416 0.7190704323420595, 2.3492315519647713 0.8550503583141718 C2.299738906453201 0.991030284286284, 2.2374169168223177 1.124680222349637, 2.165063509461097 1.2499999999999998 C2.092710102099876 1.3753197776503625, 2.0081268553382365 1.496117172916774, 1.915111107797445 1.6069690242163481 C1.8220953602566536 1.7178208755159223, 1.7178208755159226 1.8220953602566536, 1.6069690242163484 1.915111107797445 C1.4961171729167742 2.0081268553382365, 1.375319777650363 2.0927101020998755, 1.2500000000000002 2.1650635094610964 C1.1246802223496375 2.2374169168223172, 0.9910302842862845 2.2997389064532, 0.8550503583141721 2.349231551964771 C0.7190704323420597 2.3987241974763416, 0.576628837219688 2.436891307857982, 0.43412044416732604 2.46201938253052 C0.291612051114964 2.487147457203058, 0.14470681472244212 2.5, 1.5308084989341916e-16 2.5 C-0.1447068147224418 2.5, -0.2916120511149638 2.487147457203058, -0.43412044416732576 2.46201938253052 C-0.5766288372196877 2.436891307857982, -0.7190704323420595 2.3987241974763416, -0.8550503583141718 2.3492315519647713 C-0.991030284286284 2.299738906453201, -1.124680222349637 2.2374169168223177, -1.2499999999999996 2.165063509461097 C-1.375319777650362 2.092710102099876, -1.4961171729167733 2.008126855338237, -1.6069690242163475 1.9151111077974459 C-1.7178208755159217 1.8220953602566548, -1.822095360256653 1.7178208755159234, -1.9151111077974443 1.6069690242163495 C-2.0081268553382357 1.4961171729167755, -2.0927101020998746 1.3753197776503645, -2.1650635094610955 1.250000000000002 C-2.2374169168223164 1.1246802223496395, -2.2997389064531992 0.9910302842862865, -2.34923155196477 0.8550503583141743 C-2.3987241974763407 0.7190704323420621, -2.436891307857981 0.5766288372196907, -2.4620193825305194 0.434120444167329 C-2.487147457203058 0.29161205111496724, -2.5 0.14470681472244545, -2.5 3.636830773662308e-15 C-2.5 -0.14470681472243818, -2.4871474572030587 -0.2916120511149599, -2.4620193825305208 -0.4341204441673218 C-2.436891307857983 -0.5766288372196837, -2.398724197476343 -0.7190704323420553, -2.3492315519647726 -0.8550503583141675 C-2.2997389064532023 -0.9910302842862798, -2.23741691682232 -1.1246802223496328, -2.165063509461099 -1.2499999999999956 C-2.092710102099878 -1.3753197776503583, -2.00812685533824 -1.4961171729167695, -1.9151111077974488 -1.606969024216344 C-1.8220953602566576 -1.7178208755159183, -1.7178208755159263 -1.82209536025665, -1.6069690242163523 -1.9151111077974416 C-1.4961171729167784 -2.0081268553382334, -1.3753197776503672 -2.0927101020998724, -1.2500000000000047 -2.1650635094610937 C-1.1246802223496422 -2.237416916822315, -0.9910302842862897 -2.299738906453198, -0.8550503583141776 -2.3492315519647686 C-0.7190704323420656 -2.3987241974763394, -0.5766288372196942 -2.4368913078579806, -0.43412044416733236 -2.462019382530519 C-0.29161205111497057 -2.4871474572030574, -0.1447068147224489 -2.4999999999999996, -7.120580697431198e-15 -2.5 C0.14470681472243463 -2.5000000000000004, 0.29161205111495647 -2.487147457203059, 0.4341204441673183 -2.4620193825305217 C0.5766288372196802 -2.436891307857984, 0.7190704323420518 -2.3987241974763442, 0.8550503583141642 -2.349231551964774 C0.9910302842862766 -2.2997389064532037, 1.1246802223496295 -2.2374169168223212, 1.2499999999999925 -2.165063509461101 C1.3753197776503554 -2.0927101020998804, 1.4961171729167668 -2.008126855338242, 1.6069690242163412 -1.915111107797451 C1.7178208755159157 -1.82209536025666, 1.8220953602566472 -1.7178208755159294, 1.915111107797439 -1.6069690242163557 C2.0081268553382308 -1.496117172916782, 2.09271010209987 -1.3753197776503712, 2.1650635094610915 -1.2500000000000089 C2.237416916822313 -1.1246802223496466, 2.299738906453196 -0.9910302842862939, 2.3492315519647673 -0.855050358314182 C2.3987241974763385 -0.71907043234207, 2.4368913078579792 -0.5766288372196986, 2.462019382530518 -0.4341204441673369 C2.487147457203057 -0.29161205111497523, 2.4936698970884197 -0.07235340736123454, 2.5 -1.1714553645825241e-14 C2.5063301029115803 0.07235340736121111, 2.50633010291158 -0.07235340736122292, 2.5 0" stroke="none" stroke-width="0" fill="#000" style=""/><path d="M2.5 0 C2.5 0.14470681472244193, 2.487147457203058 0.29161205111496386, 2.46201938253052 0.4341204441673258 C2.436891307857982 0.5766288372196877, 2.3987241974763416 0.7190704323420595, 2.3492315519647713 0.8550503583141718 C2.299738906453201 0.991030284286284, 2.2374169168223177 1.124680222349637, 2.165063509461097 1.2499999999999998 C2.092710102099876 1.3753197776503625, 2.0081268553382365 1.496117172916774, 1.915111107797445 1.6069690242163481 C1.8220953602566536 1.7178208755159223, 1.7178208755159226 1.8220953602566536, 1.6069690242163484 1.915111107797445 C1.4961171729167742 2.0081268553382365, 1.375319777650363 2.0927101020998755, 1.2500000000000002 2.1650635094610964 C1.1246802223496375 2.2374169168223172, 0.9910302842862845 2.2997389064532, 0.8550503583141721 2.349231551964771 C0.7190704323420597 2.3987241974763416, 0.576628837219688 2.436891307857982, 0.43412044416732604 2.46201938253052 C0.291612051114964 2.487147457203058, 0.14470681472244212 2.5, 1.5308084989341916e-16 2.5 C-0.1447068147224418 2.5, -0.2916120511149638 2.487147457203058, -0.43412044416732576 2.46201938253052 C-0.5766288372196877 2.436891307857982, -0.7190704323420595 2.3987241974763416, -0.8550503583141718 2.3492315519647713 C-0.991030284286284 2.299738906453201, -1.124680222349637 2.2374169168223177, -1.2499999999999996 2.165063509461097 C-1.375319777650362 2.092710102099876, -1.4961171729167733 2.008126855338237, -1.6069690242163475 1.9151111077974459 C-1.7178208755159217 1.8220953602566548, -1.822095360256653 1.7178208755159234, -1.9151111077974443 1.6069690242163495 C-2.0081268553382357 1.4961171729167755, -2.0927101020998746 1.3753197776503645, -2.1650635094610955 1.250000000000002 C-2.2374169168223164 1.1246802223496395, -2.2997389064531992 0.9910302842862865, -2.34923155196477 0.8550503583141743 C-2.3987241974763407 0.7190704323420621, -2.436891307857981 0.5766288372196907, -2.4620193825305194 0.434120444167329 C-2.487147457203058 0.29161205111496724, -2.5 0.14470681472244545, -2.5 3.636830773662308e-15 C-2.5 -0.14470681472243818, -2.4871474572030587 -0.2916120511149599, -2.4620193825305208 -0.4341204441673218 C-2.436891307857983 -0.5766288372196837, -2.398724197476343 -0.7190704323420553, -2.3492315519647726 -0.8550503583141675 C-2.2997389064532023 -0.9910302842862798, -2.23741691682232 -1.1246802223496328, -2.165063509461099 -1.2499999999999956 C-2.092710102099878 -1.3753197776503583, -2.00812685533824 -1.4961171729167695, -1.9151111077974488 -1.606969024216344 C-1.8220953602566576 -1.7178208755159183, -1.7178208755159263 -1.82209536025665, -1.6069690242163523 -1.9151111077974416 C-1.4961171729167784 -2.0081268553382334, -1.3753197776503672 -2.0927101020998724, -1.2500000000000047 -2.1650635094610937 C-1.1246802223496422 -2.237416916822315, -0.9910302842862897 -2.299738906453198, -0.8550503583141776 -2.3492315519647686 C-0.7190704323420656 -2.3987241974763394, -0.5766288372196942 -2.4368913078579806, -0.43412044416733236 -2.462019382530519 C-0.29161205111497057 -2.4871474572030574, -0.1447068147224489 -2.4999999999999996, -7.120580697431198e-15 -2.5 C0.14470681472243463 -2.5000000000000004, 0.29161205111495647 -2.487147457203059, 0.4341204441673183 -2.4620193825305217 C0.5766288372196802 -2.436891307857984, 0.7190704323420518 -2.3987241974763442, 0.8550503583141642 -2.349231551964774 C0.9910302842862766 -2.2997389064532037, 1.1246802223496295 -2.2374169168223212, 1.2499999999999925 -2.165063509461101 C1.3753197776503554 -2.0927101020998804, 1.4961171729167668 -2.008126855338242, 1.6069690242163412 -1.915111107797451 C1.7178208755159157 -1.82209536025666, 1.8220953602566472 -1.7178208755159294, 1.915111107797439 -1.6069690242163557 C2.0081268553382308 -1.496117172916782, 2.09271010209987 -1.3753197776503712, 2.1650635094610915 -1.2500000000000089 C2.237416916822313 -1.1246802223496466, 2.299738906453196 -0.9910302842862939, 2.3492315519647673 -0.855050358314182 C2.3987241974763385 -0.71907043234207, 2.4368913078579792 -0.5766288372196986, 2.462019382530518 -0.4341204441673369 C2.487147457203057 -0.29161205111497523, 2.4936698970884197 -0.07235340736123454, 2.5 -1.1714553645825241e-14 C2.5063301029115803 0.07235340736121111, 2.50633010291158 -0.07235340736122292, 2.5 0" stroke="#000" stroke-width="2" fill="none" stroke-dasharray="0 0" style=""/></g></g></g></g></g></g></svg>