<svg id="my-svg" width="100%" xmlns="http://www.w3.org/2000/svg" xmlns:xlink="http://www.w3.org/1999/xlink" style="max-width: 536.875px; background-color: transparent;" viewBox="-128.875 -19 536.875 256.8320617675781" role="graphics-document document" aria-roledescription="gitGraph"><style>#my-svg{font-family:"trebuchet ms",verdana,arial,sans-serif;font-size:16px;fill:#000000;}@keyframes edge-animation-frame{from{stroke-dashoffset:0;}}@keyframes dash{to{stroke-dashoffset:0;}}#my-svg .edge-animation-slow{stroke-dasharray:9,5!important;stroke-dashoffset:900;animation:dash 50s linear infinite;stroke-linecap:round;}#my-svg .edge-animation-fast{stroke-dasharray:9,5!important;stroke-dashoffset:900;animation:dash 20s linear infinite;stroke-linecap:round;}#my-svg .error-icon{fill:#552222;}#my-svg .error-text{fill:#552222;stroke:#552222;}#my-svg .edge-thickness-normal{stroke-width:1px;}#my-svg .edge-thickness-thick{stroke-width:3.5px;}#my-svg .edge-pattern-solid{stroke-dasharray:0;}#my-svg .edge-thickness-invisible{stroke-width:0;fill:none;}#my-svg .edge-pattern-dashed{stroke-dasharray:3;}#my-svg .edge-pattern-dotted{stroke-dasharray:2;}#my-svg .marker{fill:#666;stroke:#666;}#my-svg .marker.cross{stroke:#666;}#my-svg svg{font-family:"trebuchet ms",verdana,arial,sans-serif;font-size:16px;}#my-svg p{margin:0;}#my-svg .commit-id,#my-svg .commit-msg,#my-svg .branch-label{fill:lightgrey;color:lightgrey;font-family:'trebuchet ms',verdana,arial,sans-serif;font-family:var(--mermaid-font-family);}#my-svg .branch-label0{fill:#333;}#my-svg .commit0{stroke:hsl(0, 0%, 70.6862745098%);fill:hsl(0, 0%, 70.6862745098%);}#my-svg .commit-highlight0{stroke:rgb(74.75, 74.75, 74.75);fill:rgb(74.75, 74.75, 74.75);}#my-svg .label0{fill:hsl(0, 0%, 70.6862745098%);}#my-svg .arrow0{stroke:hsl(0, 0%, 70.6862745098%);}#my-svg .branch-label1{fill:white;}#my-svg .commit1{stroke:#555;fill:#555;}#my-svg .commit-highlight1{stroke:#aaaaaa;fill:#aaaaaa;}#my-svg .label1{fill:#555;}#my-svg .arrow1{stroke:#555;}#my-svg .branch-label2{fill:#333;}#my-svg .commit2{stroke:#BBB;fill:#BBB;}#my-svg .commit-highlight2{stroke:#444444;fill:#444444;}#my-svg .label2{fill:#BBB;}#my-svg .arrow2{stroke:#BBB;}#my-svg .branch-label3{fill:white;}#my-svg .commit3{stroke:#777;fill:#777;}#my-svg .commit-highlight3{stroke:#888888;fill:#888888;}#my-svg .label3{fill:#777;}#my-svg .arrow3{stroke:#777;}#my-svg .branch-label4{fill:#333;}#my-svg .commit4{stroke:#999;fill:#999;}#my-svg .commit-highlight4{stroke:#666666;fill:#666666;}#my-svg .label4{fill:#999;}#my-svg .arrow4{stroke:#999;}#my-svg .branch-label5{fill:#333;}#my-svg .commit5{stroke:#DDD;fill:#DDD;}#my-svg .commit-highlight5{stroke:#222222;fill:#222222;}#my-svg .label5{fill:#DDD;}#my-svg .arrow5{stroke:#DDD;}#my-svg .branch-label6{fill:#333;}#my-svg .commit6{stroke:#FFF;fill:#FFF;}#my-svg .commit-highlight6{stroke:#000000;fill:#000000;}#my-svg .label6{fill:#FFF;}#my-svg .arrow6{stroke:#FFF;}#my-svg .branch-label7{fill:#333;}#my-svg .commit7{stroke:#DDD;fill:#DDD;}#my-svg .commit-highlight7{stroke:#222222;fill:#222222;}#my-svg .label7{fill:#DDD;}#my-svg .arrow7{stroke:#DDD;}#my-svg .branch{stroke-width:1;stroke:#666;stroke-dasharray:2;}#my-svg .commit-label{font-size:10px;fill:rgb(2.7499999999, 2.7499999999, 2.7499999999);}#my-svg .commit-label-bkg{font-size:10px;fill:hsl(0, 0%, 98.9215686275%);opacity:0.5;}#my-svg .tag-label{font-size:10px;fill:#111111;}#my-svg .tag-label-bkg{fill:#eee;stroke:hsl(0, 0%, 83.3333333333%);}#my-svg .tag-hole{fill:#000000;}#my-svg .commit-merge{stroke:#eee;fill:#eee;}#my-svg .commit-reverse{stroke:#eee;fill:#eee;stroke-width:3;}#my-svg .commit-highlight-inner{stroke:#eee;fill:#eee;}#my-svg .arrow{stroke-width:8;stroke-linecap:round;fill:none;}#my-svg .gitTitleText{text-anchor:middle;font-size:18px;fill:#000000;}#my-svg :root{--mermaid-font-family:"trebuchet ms",verdana,arial,sans-serif;}</style><g/><g class="commit-bullets"/><g class="commit-labels"/><g><line x1="0" y1="0" x2="400" y2="0" class="branch branch0"/><rect class="branchLabelBkg label0" rx="4" ry="4" x="-69" y="-1.5" width="53" height="23" transform="translate(-19, -9.5)"/><g class="branchLabel"><g class="label branch-label0" transform="translate(-79, -10.5)"><text><tspan xml:space="preserve" dy="1em" x="0" class="row">main</tspan></text></g></g><line x1="0" y1="90" x2="400" y2="90" class="branch branch1"/><rect class="branchLabelBkg label1" rx="4" ry="4" x="-101.359375" y="-1.5" width="85.359375" height="23" transform="translate(-19, 80.5)"/><g class="branchLabel"><g class="label branch-label1" transform="translate(-111.359375, 79.5)"><text><tspan xml:space="preserve" dy="1em" x="0" class="row">feature-a</tspan></text></g></g><line x1="0" y1="180" x2="400" y2="180" class="branch branch2"/><rect class="branchLabelBkg label2" rx="4" ry="4" x="-101.875" y="-1.5" width="85.875" height="23" transform="translate(-19, 170.5)"/><g class="branchLabel"><g class="label branch-label2" transform="translate(-111.875, 169.5)"><text><tspan xml:space="preserve" dy="1em" x="0" class="row">feature-b</tspan></text></g></g></g><g class="commit-arrows"><path d="M 10 0 L 60 0" class="arrow arrow0"/><path d="M 60 0 L 60 70 A 20 20, 0, 0, 0, 80 90 L 110 90" class="arrow arrow1"/><path d="M 60 0 L 160 0" class="arrow arrow0"/><path d="M 110 90 L 140 90 A 20 20, 0, 0, 0, 160 70 L 160 0" class="arrow arrow1"/><path d="M 160 0 L 210 0" class="arrow arrow0"/><path d="M 210 0 L 210 160 A 20 20, 0, 0, 0, 230 180 L 260 180" class="arrow arrow2"/><path d="M 210 0 L 310 0" class="arrow arrow0"/><path d="M 260 180 L 290 180 A 20 20, 0, 0, 0, 310 160 L 310 0" class="arrow arrow2"/><path d="M 310 0 L 360 0" class="arrow arrow0"/></g><g class="commit-bullets"><circle cx="10" cy="0" r="10" class="commit main-1 commit0"/><circle cx="60" cy="0" r="10" class="commit main-2 commit0"/><circle cx="110" cy="90" r="10" class="commit feat-a-1 commit1"/><circle cx="160" cy="0" r="9" class="commit merge-a commit0"/><circle cx="160" cy="0" r="6" class="commit commit-merge merge-a commit0"/><circle cx="210" cy="0" r="10" class="commit main-3 commit0"/><circle cx="260" cy="180" r="10" class="commit feat-b-1 commit2"/><circle cx="310" cy="0" r="9" class="commit merge-b commit0"/><circle cx="310" cy="0" r="6" class="commit commit-merge merge-b commit0"/><circle cx="360" cy="0" r="10" class="commit main-4 commit0"/></g><g class="commit-labels"><g transform="translate(-23.002812499999997, 20.470937499999998) rotate(-45, 0, 0)"><rect class="commit-label-bkg" x="-7.3984375" y="13.5" width="34.796875" height="15"/><text x="-5.3984375" y="25" class="commit-label">main-1</text></g><g transform="translate(-23.002812499999997, 20.470937499999998) rotate(-45, 50, 0)"><rect class="commit-label-bkg" x="42.6015625" y="13.5" width="34.796875" height="15"/><text x="44.6015625" y="25" class="commit-label">main-2</text></g><g transform="translate(-25.063125, 22.314375) rotate(-45, 100, 90)"><rect class="commit-label-bkg" x="89.890625" y="103.5" width="40.21875" height="15"/><text x="91.890625" y="115" class="commit-label">feat-a-1</text></g><g transform="translate(-25.3778125, 22.595937499999998) rotate(-45, 150, 0)"><rect class="commit-label-bkg" x="139.4765625" y="13.5" width="41.046875" height="15.05078125"/><text x="141.4765625" y="25" class="commit-label">merge-a</text></g><g transform="translate(-23.002812499999997, 20.470937499999998) rotate(-45, 200, 0)"><rect class="commit-label-bkg" x="192.6015625" y="13.5" width="34.796875" height="15"/><text x="194.6015625" y="25" class="commit-label">main-3</text></g><g transform="translate(-25.181875, 22.420625) rotate(-45, 250, 180)"><rect class="commit-label-bkg" x="239.734375" y="193.5" width="40.53125" height="15"/><text x="241.734375" y="205" class="commit-label">feat-b-1</text></g><g transform="translate(-25.4965625, 22.7021875) rotate(-45, 300, 0)"><rect class="commit-label-bkg" x="289.3203125" y="13.5" width="41.359375" height="15.05078125"/><text x="291.3203125" y="25" class="commit-label">merge-b</text></g><g transform="translate(-23.002812499999997, 20.470937499999998) rotate(-45, 350, 0)"><rect class="commit-label-bkg" x="342.6015625" y="13.5" width="34.796875" height="15"/><text x="344.6015625" y="25" class="commit-label">main-4</text></g></g></svg>