<svg id="my-svg" width="100%" xmlns="http://www.w3.org/2000/svg" xmlns:xlink="http://www.w3.org/1999/xlink" style="max-width: 615.109px; background-color: transparent;" viewBox="-157.109375 -34.70000076293945 615.109375 349.51715087890625" role="graphics-document document" aria-roledescription="gitGraph"><style>#my-svg{font-family:"trebuchet ms",verdana,arial,sans-serif;font-size:16px;fill:#000000;}@keyframes edge-animation-frame{from{stroke-dashoffset:0;}}@keyframes dash{to{stroke-dashoffset:0;}}#my-svg .edge-animation-slow{stroke-dasharray:9,5!important;stroke-dashoffset:900;animation:dash 50s linear infinite;stroke-linecap:round;}#my-svg .edge-animation-fast{stroke-dasharray:9,5!important;stroke-dashoffset:900;animation:dash 20s linear infinite;stroke-linecap:round;}#my-svg .error-icon{fill:#552222;}#my-svg .error-text{fill:#552222;stroke:#552222;}#my-svg .edge-thickness-normal{stroke-width:1px;}#my-svg .edge-thickness-thick{stroke-width:3.5px;}#my-svg .edge-pattern-solid{stroke-dasharray:0;}#my-svg .edge-thickness-invisible{stroke-width:0;fill:none;}#my-svg .edge-pattern-dashed{stroke-dasharray:3;}#my-svg .edge-pattern-dotted{stroke-dasharray:2;}#my-svg .marker{fill:#666;stroke:#666;}#my-svg .marker.cross{stroke:#666;}#my-svg svg{font-family:"trebuchet ms",verdana,arial,sans-serif;font-size:16px;}#my-svg p{margin:0;}#my-svg .commit-id,#my-svg .commit-msg,#my-svg .branch-label{fill:lightgrey;color:lightgrey;font-family:'trebuchet ms',verdana,arial,sans-serif;font-family:var(--mermaid-font-family);}#my-svg .branch-label0{fill:#333;}#my-svg .commit0{stroke:hsl(0, 0%, 70.6862745098%);fill:hsl(0, 0%, 70.6862745098%);}#my-svg .commit-highlight0{stroke:rgb(74.75, 74.75, 74.75);fill:rgb(74.75, 74.75, 74.75);}#my-svg .label0{fill:hsl(0, 0%, 70.6862745098%);}#my-svg .arrow0{stroke:hsl(0, 0%, 70.6862745098%);}#my-svg .branch-label1{fill:white;}#my-svg .commit1{stroke:#555;fill:#555;}#my-svg .commit-highlight1{stroke:#aaaaaa;fill:#aaaaaa;}#my-svg .label1{fill:#555;}#my-svg .arrow1{stroke:#555;}#my-svg .branch-label2{fill:#333;}#my-svg .commit2{stroke:#BBB;fill:#BBB;}#my-svg .commit-highlight2{stroke:#444444;fill:#444444;}#my-svg .label2{fill:#BBB;}#my-svg .arrow2{stroke:#BBB;}#my-svg .branch-label3{fill:white;}#my-svg .commit3{stroke:#777;fill:#777;}#my-svg .commit-highlight3{stroke:#888888;fill:#888888;}#my-svg .label3{fill:#777;}#my-svg .arrow3{stroke:#777;}#my-svg .branch-label4{fill:#333;}#my-svg .commit4{stroke:#999;fill:#999;}#my-svg .commit-highlight4{stroke:#666666;fill:#666666;}#my-svg .label4{fill:#999;}#my-svg .arrow4{stroke:#999;}#my-svg .branch-label5{fill:#333;}#my-svg .commit5{stroke:#DDD;fill:#DDD;}#my-svg .commit-highlight5{stroke:#222222;fill:#222222;}#my-svg .label5{fill:#DDD;}#my-svg .arrow5{stroke:#DDD;}#my-svg .branch-label6{fill:#333;}#my-svg .commit6{stroke:#FFF;fill:#FFF;}#my-svg .commit-highlight6{stroke:#000000;fill:#000000;}#my-svg .label6{fill:#FFF;}#my-svg .arrow6{stroke:#FFF;}#my-svg .branch-label7{fill:#333;}#my-svg .commit7{stroke:#DDD;fill:#DDD;}#my-svg .commit-highlight7{stroke:#222222;fill:#222222;}#my-svg .label7{fill:#DDD;}#my-svg .arrow7{stroke:#DDD;}#my-svg .branch{stroke-width:1;stroke:#666;stroke-dasharray:2;}#my-svg .commit-label{font-size:10px;fill:rgb(2.7499999999, 2.7499999999, 2.7499999999);}#my-svg .commit-label-bkg{font-size:10px;fill:hsl(0, 0%, 98.9215686275%);opacity:0.5;}#my-svg .tag-label{font-size:10px;fill:#111111;}#my-svg .tag-label-bkg{fill:#eee;stroke:hsl(0, 0%, 83.3333333333%);}#my-svg .tag-hole{fill:#000000;}#my-svg .commit-merge{stroke:#eee;fill:#eee;}#my-svg .commit-reverse{stroke:#eee;fill:#eee;stroke-width:3;}#my-svg .commit-highlight-inner{stroke:#eee;fill:#eee;}#my-svg .arrow{stroke-width:8;stroke-linecap:round;fill:none;}#my-svg .gitTitleText{text-anchor:middle;font-size:18px;fill:#000000;}#my-svg :root{--mermaid-font-family:"trebuchet ms",verdana,arial,sans-serif;}</style><g/><g class="commit-bullets"/><g class="commit-labels"/><g><line x1="0" y1="0" x2="450" y2="0" class="branch branch0"/><rect class="branchLabelBkg label0" rx="4" ry="4" x="-69" y="-1.5" width="53" height="23" transform="translate(-19, -9.5)"/><g class="branchLabel"><g class="label branch-label0" transform="translate(-79, -10.5)"><text><tspan xml:space="preserve" dy="1em" x="0" class="row">main</tspan></text></g></g><line x1="0" y1="90" x2="450" y2="90" class="branch branch1"/><rect class="branchLabelBkg label1" rx="4" ry="4" x="-90.421875" y="-1.5" width="74.421875" height="23" transform="translate(-19, 80.5)"/><g class="branchLabel"><g class="label branch-label1" transform="translate(-100.421875, 79.5)"><text><tspan xml:space="preserve" dy="1em" x="0" class="row">develop</tspan></text></g></g><line x1="0" y1="180" x2="450" y2="180" class="branch branch2"/><rect class="branchLabelBkg label2" rx="4" ry="4" x="-130.109375" y="-1.5" width="114.109375" height="23" transform="translate(-19, 170.5)"/><g class="branchLabel"><g class="label branch-label2" transform="translate(-140.109375, 169.5)"><text><tspan xml:space="preserve" dy="1em" x="0" class="row">feature/login</tspan></text></g></g><line x1="0" y1="270" x2="450" y2="270" class="branch branch3"/><rect class="branchLabelBkg label3" rx="4" ry="4" x="-117.046875" y="-1.5" width="101.046875" height="23" transform="translate(-19, 260.5)"/><g class="branchLabel"><g class="label branch-label3" transform="translate(-127.046875, 259.5)"><text><tspan xml:space="preserve" dy="1em" x="0" class="row">release/1.0</tspan></text></g></g></g><g class="commit-arrows"><path d="M 10 0 L 10 70 A 20 20, 0, 0, 0, 30 90 L 60 90" class="arrow arrow1"/><path d="M 60 90 L 60 160 A 20 20, 0, 0, 0, 80 180 L 110 180" class="arrow arrow2"/><path d="M 110 180 L 160 180" class="arrow arrow2"/><path d="M 60 90 L 210 90" class="arrow arrow1"/><path d="M 160 180 L 190 180 A 20 20, 0, 0, 0, 210 160 L 210 90" class="arrow arrow2"/><path d="M 210 90 L 210 250 A 20 20, 0, 0, 0, 230 270 L 260 270" class="arrow arrow3"/><path d="M 10 0 L 310 0" class="arrow arrow0"/><path d="M 260 270 L 290 270 A 20 20, 0, 0, 0, 310 250 L 310 0" class="arrow arrow3"/><path d="M 210 90 L 360 90" class="arrow arrow1"/><path d="M 260 270 L 340 270 A 20 20, 0, 0, 0, 360 250 L 360 90" class="arrow arrow3"/><path d="M 360 90 L 410 90" class="arrow arrow1"/></g><g class="commit-bullets"><circle cx="10" cy="0" r="10" class="commit init commit0"/><circle cx="60" cy="90" r="10" class="commit dev-1 commit1"/><circle cx="110" cy="180" r="10" class="commit login-1 commit2"/><circle cx="160" cy="180" r="10" class="commit login-2 commit2"/><circle cx="210" cy="90" r="9" class="commit merge-login commit1"/><circle cx="210" cy="90" r="6" class="commit commit-merge merge-login commit1"/><circle cx="260" cy="270" r="10" class="commit rc-1 commit3"/><circle cx="310" cy="0" r="9" class="commit v1.0 commit0"/><circle cx="310" cy="0" r="6" class="commit commit-merge v1.0 commit0"/><circle cx="360" cy="90" r="9" class="commit merge-rc commit1"/><circle cx="360" cy="90" r="6" class="commit commit-merge merge-rc commit1"/><circle cx="410" cy="90" r="10" class="commit dev-2 commit1"/></g><g class="commit-labels"><g transform="translate(-17.0534375, 15.1478125) rotate(-45, 0, 0)"><rect class="commit-label-bkg" x="0.4296875" y="13.5" width="19.140625" height="15"/><text x="2.4296875" y="25" class="commit-label">init</text></g><g transform="translate(-20.740625, 18.446875) rotate(-45, 50, 90)"><rect class="commit-label-bkg" x="45.578125" y="103.5" width="28.84375" height="15"/><text x="47.578125" y="115" class="commit-label">dev-1</text></g><g transform="translate(-22.9196875, 20.3965625) rotate(-45, 100, 180)"><rect class="commit-label-bkg" x="92.7109375" y="193.5" width="34.578125" height="15.05078125"/><text x="94.7109375" y="205" class="commit-label">login-1</text></g><g transform="translate(-22.9196875, 20.3965625) rotate(-45, 150, 180)"><rect class="commit-label-bkg" x="142.7109375" y="193.5" width="34.578125" height="15.05078125"/><text x="144.7109375" y="205" class="commit-label">login-2</text></g><g transform="translate(-31.60625, 28.168750000000003) rotate(-45, 200, 90)"><rect class="commit-label-bkg" x="181.28125" y="103.5" width="57.4375" height="15.05078125"/><text x="183.28125" y="115" class="commit-label">merge-login</text></g><g transform="translate(-18.0509375, 16.0403125) rotate(-45, 250, 270)"><rect class="commit-label-bkg" x="249.1171875" y="283.5" width="21.765625" height="15"/><text x="251.1171875" y="295" class="commit-label">rc-1</text></g><g transform="translate(-18.543750000000003, 16.48125) rotate(-45, 300, 0)"><rect class="commit-label-bkg" x="298.46875" y="13.5" width="23.0625" height="15"/><text x="300.46875" y="25" class="commit-label">v1.0</text></g><polygon class="tag-label-bkg" points="284.0078125,-17.2  &#10;      284.0078125,-21.2&#10;      292.0078125,-26.7&#10;      327.9921875,-26.7&#10;      327.9921875,-11.7&#10;      292.0078125,-11.7"/><circle cy="-19.2" cx="288.0078125" r="1.5" class="tag-hole"/><text y="-16" class="tag-label" x="296.0078125">v1.0.0</text><g transform="translate(-26.7375, 23.8125) rotate(-45, 350, 90)"><rect class="commit-label-bkg" x="337.6875" y="103.5" width="44.625" height="15.05078125"/><text x="339.6875" y="115" class="commit-label">merge-rc</text></g><g transform="translate(-20.740625, 18.446875) rotate(-45, 400, 90)"><rect class="commit-label-bkg" x="395.578125" y="103.5" width="28.84375" height="15"/><text x="397.578125" y="115" class="commit-label">dev-2</text></g></g></svg>